<svg xmlns="http://www.w3.org/2000/svg" viewBox="0 0 2798.05 3166.5"><defs><style>.cls-1{fill:#7ae2f9;}.cls-2{fill:#000072;}.cls-3{opacity:0.3;}.cls-4{opacity:0.5;}.cls-5{fill:#fff;}.cls-6{fill:#9fd126;}.cls-7{fill:#181558;}.cls-8{fill:none;stroke:#000072;stroke-linecap:round;stroke-miterlimit:10;stroke-width:30.19px;}.cls-9{opacity:0.45;}.cls-10{fill:#d69f65;}.cls-11{fill:#ff8080;}.cls-12{fill:#39d5ff;}.cls-13{fill:#ea7878;}.cls-14{fill:#b79567;}.cls-15{opacity:0.35;}.cls-16{fill:#8cc43b;}.cls-17{fill:#93c105;}.cls-18{fill:#ff781d;}.cls-19{opacity:0.7;}</style></defs><g id="Layer_2" data-name="Layer 2"><g id="Layer_1-2" data-name="Layer 1"><path class="cls-1" d="M1405.27,584.36c-75.39,166.78-64.22,350.72,14.49,501.24,18.27,23.27,112.84,136.28,287.83,219.66,178.24,76.3,325.55,72.63,355.09,71,165-40.36,310.45-153.49,385.85-320.27,130.23-288.09,2.24-627.18-285.85-757.42S1535.51,296.27,1405.27,584.36Z"/><path class="cls-2" d="M2038.5,1379.16c-55.58,0-183.33-8.16-331.84-71.73-175.94-83.84-271.41-198.28-288.76-220.37-82.74-158.15-88-341.6-14.77-503.67l2.14,1-2.14-1c63.24-139.91,177.18-246.81,320.83-301s299.79-49.23,439.69,14,246.82,177.18,301,320.82,49.24,299.81-14,439.71c-73.26,162.07-214.47,279.29-387.43,321.6C2058.37,1378.81,2050,1379.16,2038.5,1379.16ZM1927.13,249.78a570.21,570.21,0,0,0-201.51,37c-142.47,53.76-255.47,159.78-318.2,298.54-72.66,160.74-67.4,342.69,14.43,499.18,17,21.58,111.85,135.28,286.76,218.63,178.1,76.22,326.07,72.3,353.94,70.74,171.11-41.9,311.16-158.15,383.83-318.89,62.72-138.76,67.65-293.64,13.89-436.1s-159.8-255.47-298.57-318.2A568.54,568.54,0,0,0,1927.13,249.78Z"/><g class="cls-3"><path class="cls-2" d="M1741.75,1301.73c-175-83.39-269.56-196.4-287.83-219.66-78.71-150.53-89.88-334.46-14.48-501.24a569.86,569.86,0,0,1,261.67-274.18h0A570.07,570.07,0,0,0,1548,509c-75.39,166.78-64.22,350.71,14.49,501.24,18.27,23.27,112.83,136.27,287.83,219.66,178.24,76.29,325.55,72.63,355.09,71,3.78-.92,7.55-1.92,11.31-2.93h0c10.39,0,18.15-.35,22.87-.61,2-.48,3.9-1,5.85-1.52q9.08-6.06,18-12.44A575.07,575.07,0,0,1,2074,1373.31C2019.49,1373.49,1891.56,1365.85,1741.75,1301.73Z"/></g><g class="cls-4"><path class="cls-5" d="M2203.46,436.73c48.89-15.22,120.6,59.92,139.28,109.93,19.35,51.8,21.12,86.35-7.3,96.33-39.69,14-69.15-21.47-89.56-68.57C2231.45,541.11,2143.12,455.51,2203.46,436.73Z"/></g><g class="cls-4"><path class="cls-5" d="M2048.28,345.19c41.4-16,101.56,8.75,117.06,30.25,16,22.27,17.34,39.05-6.72,48.9-33.62,13.77-58.31,1.35-75.28-18.41C2071.34,392,1997.2,364.92,2048.28,345.19Z"/></g><path class="cls-6" d="M27.38,2540.78A93.29,93.29,0,0,0,35,2552.36a96.42,96.42,0,0,0,48.78,34,259,259,0,0,0-11.91,270.83c51,91.63,149.63,140.13,247.81,131.76a97.14,97.14,0,0,0,172.23,88.67,179.17,179.17,0,0,0,232,51.07c86.4-48.14,117.48-157.2,69.34-243.61a189.4,189.4,0,0,0-10.65-16.91A179.34,179.34,0,0,0,840.11,2848c86.4-48.14,117.47-157.2,69.34-243.61a181.48,181.48,0,0,0-25.42-35l618.82-459.91c40.66-30.25,5.29-93.77-41.79-75.08l-716.84,284a179.36,179.36,0,0,0-260-109.43,177.56,177.56,0,0,0-47.44,38.29,190.18,190.18,0,0,0-8.74-18c-48.14-86.4-157.25-117.44-243.65-69.31-84,46.76-115.74,151.23-73.13,236.42a97.18,97.18,0,0,0-83.83,144.42Z"/><path class="cls-2" d="M636.8,3153.75A181.11,181.11,0,0,1,492,3081.83a99.5,99.5,0,0,1-176-90.19,260.94,260.94,0,0,1-236-403.95,98.14,98.14,0,0,1-47-33.91,95.81,95.81,0,0,1-7.79-11.85h0a99.53,99.53,0,0,1,38.57-135.37,99.89,99.89,0,0,1,43.6-12.44,181,181,0,0,1,75.7-236.24c87.42-48.69,198.15-17.2,246.86,70.23,2.61,4.69,5.08,9.64,7.37,14.78a180.13,180.13,0,0,1,45.6-36c87.44-48.69,198.18-17.17,246.86,70.26a182.25,182.25,0,0,1,15.9,38.08l714.41-283c25.71-10.2,47,2.8,56.71,20.2s9.59,42.44-12.64,59L887.53,2569.69a184.74,184.74,0,0,1,24,33.56A181.62,181.62,0,0,1,786.63,2869.9c3.15,4.65,6.06,9.37,8.68,14.09A181.5,181.5,0,0,1,636.8,3153.75Zm-145.06-80.33,2.07,2.86c52.39,72.24,150.82,93.9,229,50.4,85.15-47.44,115.85-155.28,68.43-240.4a185.17,185.17,0,0,0-10.52-16.7l-2.16-3.06,3.7-.62a176.81,176.81,0,0,0,125.18-260.35A179.86,179.86,0,0,0,882.3,2571l-1.79-1.93,620.93-461.47c19.94-14.83,20.06-37.25,11.34-52.89s-27.8-27.25-50.85-18.11l-719.29,285-.7-2.54a177.55,177.55,0,0,0-16.18-39.56c-47.42-85.14-155.27-115.83-240.44-68.43a174.92,174.92,0,0,0-46.81,37.78L436,2251.6l-1.47-3.47a186.91,186.91,0,0,0-8.64-17.73c-47.43-85.15-155.3-115.83-240.44-68.4a176.3,176.3,0,0,0-72.16,233.31l1.68,3.37-3.77,0a94.83,94.83,0,0,0-90.14,68.85,94.1,94.1,0,0,0,8.35,72.06h0a90.89,90.89,0,0,0,7.42,11.29,93.59,93.59,0,0,0,47.6,33.23l3.06.94-1.8,2.64a256.09,256.09,0,0,0,233.75,398.92l3.89-.34-1.51,3.6a94.78,94.78,0,0,0,168,86.52Z"/><g class="cls-3"><path class="cls-2" d="M40.88,2761.38a258.56,258.56,0,0,0,255.83,228.5,202.26,202.26,0,0,0,38.17-14.81c36.72-19,23.56-74.75-17.77-74.42-115.17.94-220.68-35.13-261.72-108.84A260.68,260.68,0,0,1,40.88,2761.38Z"/></g><g class="cls-3"><path class="cls-2" d="M312.22,3020.91a97.14,97.14,0,0,0,179.68,56.76,179.12,179.12,0,0,0,301.35-192.54,189.4,189.4,0,0,0-10.65-16.91,176.28,176.28,0,0,0,40.22-11.77,186.09,186.09,0,0,0,17.29-8.44c86.4-48.14,117.47-157.2,69.34-243.61a181.48,181.48,0,0,0-25.42-35l618.82-459.91c39.2-29.16,7.72-89.28-36.82-76.73-.26,11.68-5.4,23.38-17.07,32.12,0,0-621.3,471.77-614.09,484.74C883,2636,892.09,2744.45,808,2791.31a169.18,169.18,0,0,1-56.14,19.42c3.61,5.16,7,10.48,10.15,16.05,0,0-164.1,80-157.94,88.89A120.34,120.34,0,0,0,742,2960.84l.49-.17c16.66-5.8,30.72,13.56,19.53,27.19-21.49,26.16-55.42,44.53-91.14,54-58.42,15.54-116.41-21.38-168.67-93.84-16.16,35-51.11,70.08-65.77,78.22C394.53,3049.64,340.74,3059.45,312.22,3020.91Z"/></g><g class="cls-3"><path class="cls-7" d="M296.71,2989.88a96.5,96.5,0,0,0,8.47,20.12,101.18,101.18,0,0,0,7,10.91,97.59,97.59,0,0,1,7.45-31.91C312,2989.63,304.36,2990,296.71,2989.88Z"/><path class="cls-2" d="M314.19,3027.57l-3.87-5.26a103.06,103.06,0,0,1-7.2-11.17,99.81,99.81,0,0,1-8.68-20.61l-.89-3.05,3.19,0c7.24.1,14.66-.2,22.74-.87l3.87-.33-1.5,3.59a94.65,94.65,0,0,0-7.27,31.14Zm-14.27-35.32a95,95,0,0,0,7.32,16.6q1.49,2.68,3.23,5.38a99.24,99.24,0,0,1,5.62-22.59C310.46,2992,305.12,2992.23,299.92,2992.25Z"/></g><path class="cls-8" d="M111.19,2396.36a97.17,97.17,0,0,0-27.42,190.06c-53,78.18-61,182.67-11.91,270.8,51.05,91.67,149.63,140.14,247.79,131.79a97.15,97.15,0,0,0,172.25,88.66,179.14,179.14,0,0,0,232,51.07c86.42-48.14,117.48-157.19,69.35-243.62a183,183,0,0,0-10.67-16.91,178,178,0,0,0,57.53-20.2c86.42-48.13,117.48-157.19,69.35-243.61a181.14,181.14,0,0,0-25.44-35l618.84-459.92c40.66-30.24,5.29-93.75-41.81-75.08l-716.83,284a181.3,181.3,0,0,0-16.4-40.07c-48.13-86.43-157.22-117.47-243.65-69.34a178.58,178.58,0,0,0-47.46,38.27,181.73,181.73,0,0,0-8.74-17.94c-48.13-86.42-157.22-117.47-243.64-69.33C100.31,2206.72,68.62,2311.16,111.19,2396.36Z"/><path class="cls-6" d="M602.89,2904a120.26,120.26,0,1,0,131.54-201.37"/><path class="cls-6" d="M705.65,2917.66a120.27,120.27,0,0,0,77.13-151.59"/><path class="cls-2" d="M706.38,2919.9l-1.46-4.48a117.91,117.91,0,0,0,75.62-148.62l4.48-1.46a122.62,122.62,0,0,1-78.64,154.56Z"/><g class="cls-3"><path class="cls-2" d="M597.2,2877.2c-9.5-4.07-17.37,8.1-9.72,15.05a120.26,120.26,0,0,0,195.3-126.18l-19.17-32.2c4.9,63.8-32.77,131.21-81.79,147.18A119.74,119.74,0,0,1,597.2,2877.2Z"/></g><path class="cls-2" d="M605.64,2899.81c14,6.15,28.3,10.23,42.7,11.52a119.29,119.29,0,0,0,42.25-3.43A113.09,113.09,0,0,0,773,2823c.69-3.4,1.12-6.85,1.74-10.28.33-3.46.43-6.95.73-10.44l-.09-10.52-1.12-10.52c-4.27-28-19.32-54.66-42.53-74.34l0,0a5.07,5.07,0,0,1,5.53-8.4,114.68,114.68,0,0,1,38.66,31.66,122.91,122.91,0,0,1,22.67,46c8.88,33.65,2.64,71.5-16.61,101.22a129.09,129.09,0,0,1-37,37.58,125.93,125.93,0,0,1-48.79,19.28c-34.5,5.86-71.09-3.84-96-25.95a5.09,5.09,0,0,1,5.42-8.46Z"/><path class="cls-6" d="M210.11,2441.87A129.63,129.63,0,0,0,239,2699.51"/><path class="cls-2" d="M224.48,2702.69c-66.24,0-123.5-49.93-131.07-117.27-8.12-72.32,44.12-137.77,116.44-145.89l.53,4.68c-69.74,7.84-120.11,70.94-112.28,140.68s71,120.05,140.68,112.27l.53,4.69A135.14,135.14,0,0,1,224.48,2702.69Z"/><g class="cls-3"><path class="cls-2" d="M83.77,2586.41a256.91,256.91,0,0,0-31.87,65.3,129.6,129.6,0,0,0,177.23,40.73L172.5,2548.22C141.91,2567.07,64.8,2580.6,83.77,2586.41Z"/></g><g class="cls-4"><path class="cls-2" d="M640.28,2493.56c-.45-13-3.2-25.1-8.72-35.49a70.32,70.32,0,0,0-21.93-25.37c-8.82-6.51-19-9.95-29.22-11.94-10.33-2-20.65-1.44-31.16.31l-.66.11a14.21,14.21,0,0,1-7.94-27.08c14.33-6.16,31-7,46.1-3.38a82.15,82.15,0,0,1,60.76,61.9,72.53,72.53,0,0,1-3.26,41.7,2.06,2.06,0,0,1-4-.69Z"/><path class="cls-2" d="M549.85,2485.36c.58-16.34-1.08-32.22-5.58-47.1a127.54,127.54,0,0,0-20.47-40.75,121.29,121.29,0,0,0-118.35-47.37c-3.67.71-7.29,1.69-11,2.5-3.59,1.08-7.1,2.42-10.7,3.56l-10.43,4.43-10,5.46c-26.13,15.81-46.3,41.78-56.09,72.85a5.07,5.07,0,0,1-9.89-1.9,123.16,123.16,0,0,1,15.82-50.77,131.24,131.24,0,0,1,36.2-40.74c29.55-22.22,69.21-31.29,106.14-24.35a137.27,137.27,0,0,1,51.81,21.19A134.05,134.05,0,0,1,546,2382.43c19.75,31.48,25.15,71.29,13.73,104.82a5.08,5.08,0,0,1-9.89-1.81Z"/></g><path class="cls-6" d="M210.11,2441.87A129.63,129.63,0,0,0,239,2699.51"/><path class="cls-2" d="M224.48,2702.69c-66.24,0-123.5-49.93-131.07-117.27-8.12-72.32,44.12-137.77,116.44-145.89l.53,4.68c-69.74,7.84-120.11,70.94-112.28,140.68s71,120.05,140.68,112.27l.53,4.69A135.14,135.14,0,0,1,224.48,2702.69Z"/><path class="cls-6" d="M210.11,2441.87A129.63,129.63,0,0,0,239,2699.51"/><path class="cls-2" d="M224.48,2702.69c-66.24,0-123.5-49.93-131.07-117.27-8.12-72.32,44.12-137.77,116.44-145.89l.53,4.68c-69.74,7.84-120.11,70.94-112.28,140.68s71,120.05,140.68,112.27l.53,4.69A135.14,135.14,0,0,1,224.48,2702.69Z"/><path class="cls-6" d="M95.3,2557.12a129.64,129.64,0,0,0,116.8,141.3"/><path class="cls-2" d="M211.87,2700.77A132,132,0,0,1,93,2556.9l4.7.44a127.25,127.25,0,0,0,114.67,138.73Z"/><g class="cls-3"><path class="cls-2" d="M95.32,2557.14A129.62,129.62,0,0,0,328.15,2647c9.9-13.23-4.69-30.58-19.47-23.21a147.3,147.3,0,0,1-196.77-65.13Z"/></g><path class="cls-2" d="M210.67,2446.87c-15.92,4.31-30.73,10.66-43.73,19.42a128.82,128.82,0,0,0-33.19,31.91,122.36,122.36,0,0,0-10.26,128.31c1.78,3.32,3.81,6.51,5.69,9.81,2.12,3.13,4.46,6.12,6.63,9.25l7.4,8.73,8.26,8c23.07,20.44,54.15,32.1,87,32.21a5.06,5.06,0,0,1,1.12,10,124.14,124.14,0,0,1-53.61-.09,132.57,132.57,0,0,1-50-22.7c-30.2-21.82-50.77-57.28-55.12-94.89a138.48,138.48,0,0,1,4.91-56.19,135.25,135.25,0,0,1,27-49.18c24.39-28.42,61.08-45.52,96.78-44.59a5.08,5.08,0,0,1,1.2,10Z"/><g class="cls-9"><path class="cls-5" d="M350.48,2211.66c-23.23-30.7-62.24-38.89-106.37-30.84-48.43,8.84-99.22,43.57-100.73,93-1.57,51.63,66.85,7.26,99-12.39,23.66-14.46,73.13-7.12,93.72-14.15C346.14,2243.9,359.23,2223.23,350.48,2211.66Z"/></g><g class="cls-9"><path class="cls-5" d="M491.24,2408.43c-12.25-20.28-35.59-27.78-63.11-25.69-30.2,2.31-63.5,20.31-67.59,50.49-4.27,31.49,40.43,8.72,61.36-1.24,15.4-7.34,45.2.32,58.25-2.66C486.52,2427.88,495.86,2416.07,491.24,2408.43Z"/></g><g class="cls-9"><path class="cls-5" d="M692.6,2328.26c8.66-20.75.46-41.12-17.46-58.78-30.84-30.39-67.74-42.88-82.33-17.45-6.93,12.08,6.11,27.19,36.71,47.36,13.21,8.7,29.85,27,40,34.07C674.46,2336.92,689.34,2336.08,692.6,2328.26Z"/></g><g class="cls-9"><path class="cls-5" d="M579.89,2228.94c-7.63-10.41-39.73-4.35-54.31,1.91-19,8.16-33,22.22-31.39,38,1.7,16.47,26.06,3.67,36.74-3.67,7.87-5.41,23.06-7,30.64-8.21C566.93,2256.15,584.9,2235.77,579.89,2228.94Z"/></g><g class="cls-9"><ellipse class="cls-5" cx="974.83" cy="2304.07" rx="203.99" ry="27.95" transform="translate(-812.73 553.74) rotate(-22.67)"/></g><path class="cls-10" d="M1375.26,50.83c-7.85,45.64,77.93,292.06,308,498.22A1119.07,1119.07,0,0,0,1986.5,743.16l70.75-103.46c4.85-.29-23.84-54.74-63.51-118.21-32-51.25-71.27-108.37-105.86-147.68C1586.42,31.29,1390.78-39.18,1375.26,50.83Z"/><path class="cls-2" d="M1987.36,746.1l-1.79-.78a1122.3,1122.3,0,0,1-303.84-194.51c-224.49-201.13-317.36-450.56-308.79-500.38h0c3.16-18.36,13.75-30.59,30.61-35.36,68.41-19.33,245.3,83.58,486.1,357.18,40.72,46.28,83.95,112.58,106.09,148,17.92,28.67,68.13,112.3,64,120.27l-.61,1.19-.47.1ZM1377.59,51.23c-8.46,49.16,84.07,296.08,307.29,496.07a1117.93,1117.93,0,0,0,300.78,192.92l69.74-102c-1-7.47-24.85-53.4-63.66-115.5-22.07-35.29-65.14-101.35-105.63-147.37C1646.67,103.31,1471.85.66,1404.83,19.62c-15.2,4.29-24.37,14.93-27.24,31.61Z"/><path class="cls-2" d="M1986.49,758.25a14.94,14.94,0,0,1-6-1.25c-248.9-107.68-403.12-278.54-488.67-402.92-96.08-139.68-138.07-267.35-131.44-305.8,4-23.21,18.1-39.34,39.7-45.45,88.24-25,284.15,116.76,499.11,361,46.7,53.07,96.78,132.26,116.13,163.85,62.62,102.16,58.83,111.36,56.32,117.45a15.54,15.54,0,0,1-13.39,9.64,15.09,15.09,0,0,1-16.06-16.19c-9.23-24.88-94.41-173.83-165.67-254.8-110.49-125.55-216-224.56-305.16-286.34-71.67-49.66-132.61-74.16-163.06-65.57-10.37,2.93-16.14,9.77-18.16,21.52-3.91,22.67,28,140.28,126.56,283.57,83.3,121.11,233.46,287.49,475.78,392.32a15.1,15.1,0,0,1-6,29Z"/><path class="cls-11" d="M1905.47,595.94a500.15,500.15,0,0,0-52.5,11.85,23,23,0,0,1-20.29-3.86c-20.75-16-74.81-60.2-154.68-144.38C1561.45,336.72,1469.4,178.65,1494.34,155c37.91-35.9,276,158,426.75,406.37A22.91,22.91,0,0,1,1905.47,595.94Z"/><path class="cls-2" d="M1846.68,611a25.37,25.37,0,0,1-15.44-5.22c-19.75-15.2-74.4-59.73-155-144.62C1567,346,1486.71,210.73,1487.89,166.7c.16-6,1.78-10.5,4.83-13.38,4.44-4.21,11.21-5.75,20.09-4.54,68.76,9.23,275.93,190,410.29,411.39a25.43,25.43,0,0,1,1.41,23.77,24.76,24.76,0,0,1-18.64,14.33h0a494.7,494.7,0,0,0-52.25,11.78A25.28,25.28,0,0,1,1846.68,611ZM1507.25,153.1c-4.94,0-8.73,1.22-11.29,3.64-2.1,2-3.23,5.38-3.36,10.08-1.13,42.24,80.36,178.61,187.11,291.11,80.32,84.65,134.74,129,154.41,144.13a20.65,20.65,0,0,0,18.21,3.45,499.17,499.17,0,0,1,52.75-11.89A20.11,20.11,0,0,0,1920.21,582a20.67,20.67,0,0,0-1.14-19.36c-133.7-220.24-339-400-406.89-409.17A36.26,36.26,0,0,0,1507.25,153.1Z"/><g class="cls-3"><path class="cls-2" d="M1494.35,155c-5.11,4.83-5.3,15.36-1.38,30.06,62-1.23,275.23,181.44,414.3,410.45a22.92,22.92,0,0,0,13.82-34.17C1770.31,313.06,1532.25,119.13,1494.35,155Z"/></g><path class="cls-2" d="M1846.7,620.45a34.86,34.86,0,0,1-21.21-7.17c-19.93-15.34-75-60.23-156-145.61-101.32-106.78-192.35-250.35-191-301.23.23-8.58,2.85-15.31,7.78-20,6.62-6.27,16-8.63,27.84-7.05,72.19,9.7,279.13,188.59,417.1,415.86a34.7,34.7,0,0,1-23.72,52.29h0a486.89,486.89,0,0,0-51.25,11.56A34.5,34.5,0,0,1,1846.7,620.45ZM1507.24,162.53c-2.64,0-4.2.51-4.79,1.06-2.44,4.15-.14,32.91,43.62,105.16,36.84,60.84,88,127.42,140.48,182.68,79.87,84.18,133.83,128.15,153.32,143.16a11.27,11.27,0,0,0,9.88,1.85,508.36,508.36,0,0,1,53.76-12.13,10.76,10.76,0,0,0,8.12-6.25,11.09,11.09,0,0,0-.63-10.54c-132.36-218-334-395.83-400.07-404.72A27.83,27.83,0,0,0,1507.24,162.53Zm398.24,433.41h0Z"/><path class="cls-5" d="M1289.65,1317.2s-54.83-34.7-80.78-83.43c-81.21-152.5-197.8,125-22.75,179.33C1279.91,1442.21,1289.65,1317.2,1289.65,1317.2Z"/><path class="cls-2" d="M1212.81,1419.84a92.59,92.59,0,0,1-27.39-4.49c-60.44-18.76-95.1-67.93-92.71-131.54,1.81-48.36,25.35-89.93,54.74-96.69,22.56-5.14,45.11,11,63.51,45.55,25.36,47.62,79.41,82.19,80,82.54l1.2.76-.11,1.42c-.2,2.68-5.55,66-43.69,91.84A61.86,61.86,0,0,1,1212.81,1419.84Zm-57.14-228.94a32.3,32.3,0,0,0-7.16.82c-26.94,6.2-49.38,46.72-51.09,92.28-2.3,61.33,31.12,108.75,89.4,126.85,23.08,7.15,42.87,5.3,58.83-5.52,33.27-22.55,40.51-77.53,41.52-86.94-8.31-5.51-56.6-38.85-80.38-83.51C1191.52,1206.21,1173.61,1190.9,1155.67,1190.9Z"/><g class="cls-3"><path class="cls-2" d="M1186.12,1413.08c90.75,28.22,102.82-88,103.49-95.51a96.12,96.12,0,0,1-16.31,9.22c-84,38-150.3-15.3-174.78-69.92C1086.11,1313.13,1104.08,1387.64,1186.12,1413.08Z"/></g><path class="cls-2" d="M1212.94,1432.62a105.89,105.89,0,0,1-31.29-5.1c-66.28-20.58-104.29-74.48-101.67-144.18,2.06-54.81,29.23-100.5,64.62-108.63,16.61-3.83,48.78-2.14,77.6,52,23.69,44.49,75,77.45,75.54,77.77l7.66,4.87-.7,9c-.23,2.94-6.09,72.13-49.23,101.4A74.14,74.14,0,0,1,1212.94,1432.62Zm-57.19-229a19.52,19.52,0,0,0-4.39.5c-18.6,4.27-39.61,37.57-41.21,80.33-1,26.52,4.85,90.74,80.45,114.21,19.44,6,35.1,4.77,47.86-3.85,23.87-16.15,32.36-53.54,35-70.37-17-12.07-56.32-43-78-83.59C1187.88,1226.48,1173,1203.64,1155.75,1203.64Z"/><path class="cls-5" d="M1267.66,1683.86c91.87,86.83,305,148.74,498.23.92s239-411.3,239-411.3-328.41-132.91-363.52-116a375.88,375.88,0,0,1-85,29c-102,22-188,2.35-275.39,75.35a305.17,305.17,0,0,0-49.9,52.57v0C1141,1436.26,1174.41,1595.75,1267.66,1683.86Z"/><path class="cls-2" d="M1514,1776.77c-106.79,0-198.06-44.08-247.92-91.2-89-84.11-132.24-243-37.14-372.16l.33-.47a308.13,308.13,0,0,1,50.28-53c61.46-51.36,122.9-57.31,188-63.61,28.38-2.75,57.72-5.59,88.45-12.24a374.76,374.76,0,0,0,84.48-28.77c35.63-17.17,352,110.51,365.42,116l1.77.72-.33,1.88c-.46,2.64-48.17,266.09-239.93,412.77C1681.42,1752.36,1593.39,1776.77,1514,1776.77Zm-280.64-461.44-.31.45c-93.89,127-51.39,283.55,36.27,366.36h0c50.65,47.87,129,80.7,209.69,87.82,70.2,6.22,176.73-3.87,285.48-87,181.78-139,233.18-384.09,237.8-408-113.77-46-332.94-128.3-359.81-115.36a378.76,378.76,0,0,1-85.53,29.13c-31,6.71-60.48,9.56-89,12.33-64.31,6.22-125,12.11-185.39,62.53A304.28,304.28,0,0,0,1233.32,1315.33Z"/><path class="cls-12" d="M1512.77,1266.8s-23,213,234.07,392.85l-86.42,43.27s-146.17-107.7-191-238.8c-37-108.17-23.24-177.09-23.24-177.09Z"/><g class="cls-3"><path class="cls-2" d="M1267.66,1683.86c91.87,86.83,305,148.74,498.23.92s239-411.3,239-411.3-30.36-12.31-73.64-28.94c-36.38,80.11-94.1,172.76-183.12,240.87-36.8,28.15-69.54,7.87-69.54,7.87s-118.38,45.61-169.07,50.74c-67.46,6.84-126.54,141.21-154.85,126.15-186.67-99.34-150.8-238.49-166-270.54C1158.72,1503.36,1195,1615.23,1267.66,1683.86Z"/></g><path class="cls-2" d="M1514.2,1789.46c-110.57,0-205.21-45.76-256.91-94.62-61.51-58.11-96.68-143.7-94.09-228.95,1.79-58.68,22-143.74,108.15-215.71,64.47-53.87,127.82-60,194.88-66.51,52.9-5.12,107.6-10.43,168.65-39.81,9.66-4.64,27.65-13.3,206.57,51.07,85.77,30.87,168.32,64.23,169.14,64.56l11.3,4.57-2.09,12c-1.91,11-49.07,271-244.75,420.7C1686.71,1764.35,1596.09,1789.46,1514.2,1789.46Zm133.36-618.19c-65.72,31.53-125.59,37.33-178.42,42.46-65,6.3-121.12,11.73-178.43,59.62-77.54,64.79-95.72,141-97.32,193.47-2.35,76.76,29.29,153.8,84.63,206.08,48.64,45.95,124.18,77.5,202.06,84.38,68,6,171.12-3.78,276.62-84.49,163.4-125,219.3-337.68,230.91-390C1837.32,1222.44,1672.27,1165.3,1647.56,1171.27Z"/><path class="cls-2" d="M1658.91,1720.55l-7.45-5.48c-6.12-4.51-150.49-112-196.33-246.07-37.87-110.74-24.34-182-23.75-184.93l1.77-8.86,97.08-29.5-2.45,22.68c-.27,2.64-17.92,207,227.72,378.89l20.76,14.53Zm-199-421.91c-2,21.13-3.89,79.55,23.82,160.59,37.15,108.63,148.88,202.51,178.45,225.94l55.68-27.88c-197.1-147.42-219.54-311.22-220.73-370Z"/><g class="cls-3"><path class="cls-2" d="M1231.12,1314.34v0c9.35,26.45,30.23,47.93,64,52.53,102.17,13.95,280.74-32.79,293.23-71.78,5.42-17-10.61-74.51-31.92-108.71-102,22-188,2.35-275.39,75.35A305.17,305.17,0,0,0,1231.12,1314.34Z"/></g><path class="cls-5" d="M1591.18,1257.32c-12.5,39-191,85.71-293.21,71.77-70.31-9.6-84.71-92.24-55.94-141,37.5-63.51,266.45-80.66,296.54-62.63S1598.31,1235.11,1591.18,1257.32Z"/><path class="cls-2" d="M1338.13,1333.9a302.45,302.45,0,0,1-40.48-2.47c-27.88-3.81-49.89-19.65-62-44.59-14.73-30.43-13-70.58,4.32-99.92,15.63-26.47,61.79-42.92,97.76-52.06,79.94-20.32,181.58-23.63,202-11.38,30.87,18.48,61.07,111.4,53.65,134.56h0C1581.7,1294.62,1440.21,1333.9,1338.13,1333.9Zm147.18-212.78c-40,0-95.93,5.49-146.39,18.31s-83.14,30-94.86,49.9c-16.55,28-18.21,66.38-4.14,95.45,8,16.61,24.7,37.37,58.37,42,103.31,14.12,279-33.92,290.65-70.16h0c6.93-21.6-22.83-111.84-51.58-129.07C1530.51,1123.42,1511.23,1121.12,1485.31,1121.12Z"/><g class="cls-3"><path class="cls-2" d="M1298,1329.09c102.17,14,280.74-32.79,293.24-71.78,2.73-8.52,0-27.32-6-48.21-39.75,35.7-192.66,72-284.23,59.46-38-5.19-59.67-31.68-67-62.65C1217.26,1254.7,1235.69,1320.59,1298,1329.09Z"/></g><path class="cls-2" d="M1339.13,1346.71a321.78,321.78,0,0,1-43.2-2.67c-32.25-4.4-57.72-22.74-71.72-51.65-16.51-34.11-14.57-79.09,4.82-111.94,14.34-24.28,49.87-43.77,105.59-57.93,79.42-20.19,186.26-25.21,211.71-10,36.69,22,68.35,120.93,59.23,149.37h0c-10.53,32.84-82,55.31-123.68,65.78C1432.46,1340.11,1381.91,1346.71,1339.13,1346.71Zm146.44-212.9c-23.65,0-55,2-90.79,7.44-72.9,11.13-126.45,32-139.75,54.55-14.24,24.13-15.74,58.43-3.64,83.43,6.68,13.81,20.55,31.07,48.62,34.9,44.74,6.1,111.61.08,174.52-15.72,72-18.09,100-38.6,102.28-45.7h0c4.67-15.21-21.22-99.42-46-114.26C1526.4,1135.93,1510.12,1133.81,1485.57,1133.81Zm105.61,123.51h0Z"/><path class="cls-2" d="M1489.75,1026.15a15.09,15.09,0,0,1-14.9-12.85,16.06,16.06,0,0,1-.15-3.06c0-5.8.21-11.1.47-16.19l0-1.54c3.87-81.37,26-160.63,64-229.69a15.1,15.1,0,1,1,26.45,14.56c-35.81,65-56.66,139.77-60.29,216.11l0,1.87c-.25,4.82-.39,9.87-.44,15.45l-.08,1.68A15.11,15.11,0,0,1,1492,1026,15.72,15.72,0,0,1,1489.75,1026.15Z"/><path class="cls-2" d="M1489.76,1027.39q-.48,0-1,0a15.11,15.11,0,0,1-14.15-15.34l-.17-1.18.25-1.57.44-15.13a15.09,15.09,0,0,1,15.08-14.66h.44A15.11,15.11,0,0,1,1505.35,995l-.44,15.19,0,.21-.09,1.84c0,.25,0,.61,0,1A15.09,15.09,0,0,1,1489.76,1027.39Z"/><g class="cls-3"><path class="cls-2" d="M1683.31,549.05A1119.07,1119.07,0,0,0,1986.5,743.16l70.75-103.46c4.85-.29-23.84-54.74-63.51-118.21a417.89,417.89,0,0,0-198.9-9.88,422.56,422.56,0,0,0-106.1,40.28C1687,550.93,1685.13,550,1683.31,549.05Z"/></g><path class="cls-10" d="M934.43,553c21.77,45.48,279.41,226.27,618,217.1q-5.16,9.38-9.87,18.95c-30.78,62.2-48.82,131.83-52.23,203.71l0,1.79c0,2.72-.15,8.41-.48,16.13a.71.71,0,0,0,0,.38c-1.45,32-6.86,98.48-27.27,136.95-30,56.4,38.47,47.71,61.74,43.09a2.17,2.17,0,0,1,1.9,3.6c-17.44,17.3-39.38,62.67-7.43,73.8,25.16,8.75,32.45.5,93.21,31l5.08,2.5c69.67,41,160,50.79,244.35,43.68,148.33-12.53,263-55.71,263-55.71,79.61-29.26,158.95-73.39,206.6-139.24l3.59-4.27c43.68-52.56,53.57-48,73.17-66.24,24.87-23.15-13.15-55.87-36-64.59a2.2,2.2,0,0,1,.3-4.09c23.11-5.18,89.36-25,39.56-64.52-34.09-27-65.46-86-79.36-114.66L2332,832c-.2-.41-.36-.79-.55-1.21-1.75-4-3.58-7.91-5.54-11.78l4,8.72c-1.83-3.77-3.18-6.73-4-8.72a10.06,10.06,0,0,1-.42-.92A6,6,0,0,1,2325,817a3.21,3.21,0,0,1-.19-.45c-90.39-184.84-283.43-303.84-490.12-264.31a422,422,0,0,0-106.1,40.29c-70-37-159.86-65.44-189.14-72.39-369.7-87.56-570.49-63.62-604.57-5.57C928,526.18,927.82,539.23,934.43,553Z"/><path class="cls-2" d="M1811.23,1350.16c-61.29,0-133.87-10-195.41-46.16l-4.92-2.42c-41-20.55-57.23-23.3-71.55-25.73a122.27,122.27,0,0,1-21.4-5.11c-9.33-3.25-15.08-9.4-17.1-18.28-4.54-20,11.43-47.3,23.65-59.43-16,3.61-55,9.22-67.78-8-6.4-8.62-5.15-21.44,3.72-38.12,19.74-37.2,25.37-100.71,27-135.54l0-.15.09-.94c.29-7.37.42-13,.44-15.74l0-1.83c3.39-71.41,21.53-142.17,52.48-204.69,2.44-5,5.11-10.18,8-15.45-181.19,4-330.82-45.68-424.74-88.37C1011.15,633.08,943,576.3,932.3,554h0c-7-14.6-6.82-28.3.51-40.71,18.77-32,82.13-50.78,178.4-53,111.13-2.51,259.35,17.34,428.75,57.45,33,7.83,121.83,36.91,188.57,72a425.65,425.65,0,0,1,105.58-39.9c198.54-38,396.53,68.75,492.78,265.56l.22.54a4.91,4.91,0,0,0,.37.83l.22.46c.08.2.18.4.3.64h0c1.89,3.74,3.73,7.64,5.6,11.91l.53,1.16c12.33,25.43,44.38,86.84,78.85,114.14,14.68,11.65,20.9,22.85,18.51,33.32-4.82,21-42.88,31.74-59,35.35,15.91,5.64,41.25,24,45.19,44.18,1.76,9.06-1.06,17.11-8.39,23.93a123.14,123.14,0,0,1-17.56,13.36c-12.15,8.06-25.92,17.19-55.4,52.66l-3.6,4.28c-41.59,57.49-111.47,104.61-207.59,139.93-1.13.43-116.6,43.44-263.56,55.85C1846.13,1349.31,1829.16,1350.16,1811.23,1350.16Zm-286.59-161.44a4.54,4.54,0,0,1,3.19,7.65c-11.93,11.84-26.34,37.55-22.38,55,1.63,7.19,6.36,12.2,14,14.88a117.71,117.71,0,0,0,20.65,4.9c14.64,2.49,31.23,5.31,72.85,26.17l5.06,2.5c78.64,46.22,175.6,49.14,243.12,43.45,146.27-12.37,261.17-55.15,262.31-55.57,95.24-35,164.38-81.57,205.52-138.42l3.69-4.41c29.92-36,44-45.32,56.41-53.56a119.62,119.62,0,0,0,17-12.88c6-5.64,8.4-12.22,7-19.57-3.43-17.62-26.72-35.19-42.21-41.1a4.56,4.56,0,0,1,.61-8.59c24.56-5.5,52-16.75,55.46-31.81,2-8.53-3.71-18.14-16.84-28.56-35.23-27.91-67.69-90.06-80-115.48l-.74-1.58c-.46-1-.92-2.07-1.37-3.08l-.11,0c-1.84-3.81-3.2-6.8-4.09-8.81-.12-.25-.26-.54-.38-.83a7.83,7.83,0,0,1-.54-1.17c-.13-.3-.23-.54-.3-.76C2227.35,622.66,2031.44,517,1835.09,554.51a420.78,420.78,0,0,0-105.41,40l-1.11.6-1.12-.59c-66.49-35.16-155.63-64.36-188.58-72.18-365.49-86.55-568.26-64.13-602-6.66-6.49,11-6.6,23.18-.32,36.27h0c21,43.82,278.49,225,615.79,215.76l4.12-.11-2,3.61c-3.55,6.44-6.85,12.78-9.82,18.85-30.66,61.95-48.64,132.07-52,202.78l-.05,1.74c0,2.7-.15,8.41-.48,16.17-1.59,35.53-7.29,100.18-27.54,138.34-7.94,14.92-9.31,26.06-4.09,33.08,11.5,15.48,51.35,9,63.3,6.59A4,4,0,0,1,1524.64,1188.72Z"/><g class="cls-3"><path class="cls-2" d="M934.43,553c21.77,45.48,279.41,226.27,618,217.1q-5.16,9.38-9.87,18.95l46.69-46.31c-1.92.42-78.27,18-309.51-36.13C1069.39,657.35,959,542.34,934.84,514.52,928,526.18,927.82,539.23,934.43,553Z"/></g><g class="cls-3"><path class="cls-2" d="M1460.86,1151.33c-25.63,52.73,40.61,44.29,63.4,39.78a2.17,2.17,0,0,1,1.9,3.6c-17.44,17.3-39.38,62.67-7.43,73.8,25.16,8.75,32.45.5,93.21,31l5.08,2.5c69.67,41,160,50.79,244.35,43.68,148.33-12.53,263-55.71,263-55.71,79.61-29.26,158.95-73.39,206.6-139.24l3.59-4.27c2.49-3,4.9-5.84,7.17-8.47-47.33,46.32-111.15,79.44-175.11,103,0,0-114.65,43.18-263,55.71-84.36,7.14-174.64-2.71-244.35-43.68l-5-2.46c-60.79-30.5-68-22.21-93.25-31-31.91-11.13-10-56.5,7.43-73.81a2.17,2.17,0,0,0-1.89-3.59C1551.3,1145.11,1491.86,1158.28,1460.86,1151.33Z"/></g><path class="cls-5" d="M2361.45,1116.59c-5.62,5.56-12.14,12.49-19.77,21.37A274.25,274.25,0,0,0,2361.45,1116.59Z"/><path class="cls-2" d="M2343.33,1139.65l-3.44-3.22c7-8.2,13.55-15.24,19.9-21.52l3.47,3.18A271.52,271.52,0,0,1,2343.33,1139.65Z"/><path class="cls-2" d="M1811.87,1362.85c-49.43,0-108-6.35-162.63-28.35a300.22,300.22,0,0,1-39.38-19.24l-4.54-2.22c-39.42-19.76-54.65-22.35-68.09-24.63a133.69,133.69,0,0,1-23.47-5.64c-13.38-4.66-22.36-14.43-25.33-27.5-3.28-14.5,1.42-31.26,8.8-45.62-20.39.73-40.26-3-50.72-17-9.59-12.91-8.69-30.3,2.68-51.7,19.08-35.93,24.13-101.14,25.44-129.08l-.15-1,.27-1.66c.28-7,.41-12.11.41-14.63l0-2c3.45-72.58,21.44-143.49,52.26-207h-.1c-174,0-317.54-48.19-409-89.73C1012.51,647.69,934.8,588.73,920.83,559.52c-10.16-21.25-8-42.58,6.12-60.06,57.59-71.38,299.36-69,615.94,5.93,29.21,6.92,114.78,33.81,185.58,70a437,437,0,0,1,102.75-37.91l.6-.13c102.62-19.63,206-2.47,298.88,49.66,87.68,49.19,161.41,128.33,207.62,222.83l.91,1.93c2.05,4.23,4.06,8.48,6,12.79l.15.21.53,1.24c11.89,24.53,42.69,83.56,75,109.12,18.87,15,26.61,30.49,23,46.15-4,17.43-21.69,28.88-39.94,36.21,12.42,10.09,23.38,23.47,26.22,38,2.59,13.27-1.75,25.93-12.2,35.66a136,136,0,0,1-19.22,14.67c-11.42,7.58-24.36,16.16-52.62,50.17l-3.34,4c-43.26,59.51-115,108-213.25,144.09-2.62,1-67.74,25.3-164,42.8-34.72,6.3-69.35,10.94-102.92,13.78h0C1847.44,1362,1830.29,1362.85,1811.87,1362.85Zm49.5-17.2h0ZM1524.65,1176a17.28,17.28,0,0,1,12.12,29.45c-10.59,10.51-21.39,32.12-18.89,43.16.45,2,1.27,4.09,5.81,5.67a103.66,103.66,0,0,0,18.59,4.38c14.76,2.51,33.12,5.63,76.44,27.35l5.94,3a270.63,270.63,0,0,0,35.86,17.56c69.47,28,146.87,28.56,199.58,24.1h0c32.62-2.75,66.28-7.26,100.06-13.4,93.36-17,158.21-41.14,158.85-41.39,92.89-34.13,160-79.19,199.66-134l.71-.91,3.62-4.27c31-37.31,46.56-47.63,59.05-55.91a106.37,106.37,0,0,0,15.35-11.62c3.63-3.39,3.54-5.7,3.14-7.78-2.17-11.11-20.51-26.39-34.26-31.63a17.3,17.3,0,0,1,2.34-32.93c26.55-5.94,44.45-16.15,45.84-22.22.4-1.74-1.67-7.27-12.34-15.75-35.51-28.11-67-85.9-82.94-118.7l-.06-.08h0l-1.81-3.85c-2.22-4.57-4.16-8.73-5.37-11.52-.31-.6-.56-1.16-.78-1.68-92.62-189.42-282.85-292.34-473.33-256a405.67,405.67,0,0,0-102,38.75l-7.12,3.89-7.17-3.79c-70.91-37.47-160.84-65.2-185.58-71.05-162.73-38.54-306-58.22-414.52-57.16-87.18.93-151.1,16.18-171,40.8-6.77,8.39-7.53,17.31-2.38,28.08,8,16.72,71.72,71.33,182.8,121.81,93,42.24,241.5,91.55,421.15,86.7l26.34-.72-12.7,23.09c-35.81,65-56.66,139.77-60.29,216.11l0,1.35c0,2.47-.13,7.94-.43,15.42v.23l0,.81-.05,1.07c-1.64,36.3-7.6,102.46-29,142.72-6.48,12.18-6.18,18.09-5.12,19.52,3.07,4.13,21.27,7.53,50.57,1.69A18.15,18.15,0,0,1,1524.65,1176Zm-9.14,8,0,0Z"/><path class="cls-2" d="M2255.35,1025.35c-11-14.35-23.25-27.86-36.72-35.81a49.85,49.85,0,0,0-20.57-7.45,53.38,53.38,0,0,0-21.65,1.78c-15,3.92-26.7,12.56-33.27,26.55s-7.71,31.82-5.06,49.7l0,.12a4.79,4.79,0,0,1-8.89,3.09c-9.93-17.32-14.07-39.2-8-60.84.82-2.67,1.89-5.29,2.87-8,1.17-2.59,2.57-5.12,3.9-7.68,1.53-2.44,3.31-4.75,5-7.12,1.87-2.22,3.91-4.31,5.95-6.41a74.1,74.1,0,0,1,29.64-16.5,69.65,69.65,0,0,1,8.08-2c2.84-.42,5.68-.84,8.53-1.16,2.81-.5,5.81,0,8.71,0l4.38.21a40.41,40.41,0,0,1,4.32.79c11.65,1.87,22.29,7.53,30.73,14.5a87.3,87.3,0,0,1,20.2,24.36c5,9,8.77,18.21,10.58,28.45a4.81,4.81,0,0,1-8.54,3.76Z"/><path class="cls-2" d="M1764.92,1139.11c-3.28-9.87-4.3-19.74-4.2-30.06a87.23,87.23,0,0,1,6.21-31c4.12-10.14,10.79-20.17,20.16-27.35a38.83,38.83,0,0,1,3.43-2.74l3.75-2.27c2.56-1.36,5-3.21,7.69-4.09,2.66-1.08,5.36-2.06,8-3a68.4,68.4,0,0,1,8.08-2.06,74.1,74.1,0,0,1,33.91.44c2.79.88,5.59,1.75,8.29,2.82,2.62,1.28,5.28,2.47,7.79,3.89,2.38,1.62,4.81,3.17,7.07,4.9,2.13,1.88,4.32,3.68,6.3,5.64,15.64,16.15,22.39,37.37,21.88,57.32A4.79,4.79,0,0,1,1894,1113l0-.13c-6.15-17-15.62-32.15-28-41.33s-26.82-11.25-41.89-7.58a53.75,53.75,0,0,0-19.9,8.72,50,50,0,0,0-14.57,16.32c-8.08,13.4-12.44,31.09-15.31,49l-.06.4a4.8,4.8,0,0,1-9.3.75Z"/><path class="cls-2" d="M1999.44,1148.93s4.39,28.19,17.41,46.19c6.68,9.17,15.62,15.68,27.43,14.27,12.87-1.53,21-10.58,26.23-21.78,10-21.54,9.1-51.19,9.1-51.19Z"/><path class="cls-13" d="M2016.85,1195.12c6.68,9.17,15.62,15.68,27.43,14.27,12.87-1.53,21-10.58,26.23-21.78-6.67-9.24-15.61-15.71-27.39-14.3C2030.26,1174.85,2022.06,1183.88,2016.85,1195.12Z"/><path class="cls-2" d="M2041.07,1212c-9.87,0-18.65-5.18-26.12-15.44l-.82-1.12.58-1.26c6.45-13.91,15.91-21.71,28.13-23.17,11.37-1.34,21.3,3.78,29.58,15.27l.81,1.12-.58,1.25c-6.45,13.9-15.9,21.68-28.09,23.14A29.44,29.44,0,0,1,2041.07,1212Zm-21.47-17.1c7.07,9.18,15.28,13.32,24.41,12.2,10.08-1.2,18.07-7.65,23.76-19.17-7-9.22-15.2-13.34-24.37-12.23C2033.28,1176.86,2025.27,1183.32,2019.6,1194.85Z"/><path class="cls-2" d="M2041,1219c-31.59,0-46.82-42.48-50.9-68.65a9.44,9.44,0,0,1,18.65-2.92c2.27,14.44,13.56,55.21,34.4,52.57,28.07-3.37,27-62.72,27-63.32a9.44,9.44,0,0,1,18.87-.61c.1,3.15,2,77.18-43.62,82.67A36.91,36.91,0,0,1,2041,1219Z"/><path class="cls-14" d="M2093.89,1127.24s7.43,17.18-7.71,26.88c-18.85,12.06-39.6-3.75-44.72-10.8-1.19-1.64-4.51-1.26-5,.71-2.66,10.7-15.58,33-41.68,27.64-10.25-2.09-21-12.51-18.1-25.09l41.91-64.47"/><path class="cls-2" d="M2002.56,1181.93a48.09,48.09,0,0,1-9.66-1,34.19,34.19,0,0,1-21.49-14.77,28.19,28.19,0,0,1-3.92-21.69,9.44,9.44,0,1,1,18.39,4.23,9.2,9.2,0,0,0,1.4,7.25,15.6,15.6,0,0,0,9.39,6.49c23.61,4.85,30.57-20.41,30.63-20.67a11.76,11.76,0,0,1,9.37-8.66,12.38,12.38,0,0,1,12.42,4.68c3,4.17,18.74,16.86,32,8.39,7.78-5,4.78-13.61,4.1-15.28a9.44,9.44,0,0,1,17.37-7.39c3.66,8.48,6,27.47-11.29,38.56-18.14,11.6-37.88,4.18-49.71-5.3C2035,1169.35,2021.81,1181.92,2002.56,1181.93Z"/><path class="cls-2" d="M2080.16,1071.34c3.69,17.61-12.69,37.28-25.82,49.8a33.13,33.13,0,0,1-34.15,7.15c-17-6.2-40-17.65-43.63-35.27C1970.57,1064.41,2074.17,1042.73,2080.16,1071.34Z"/><g class="cls-15"><path class="cls-5" d="M2051.43,1073.17c.85,4.06-7.46,9.55-14,13.17a28.8,28.8,0,0,1-15.77,3.3c-7.42-.7-17.23-2.39-18.08-6.46C2002.23,1076.58,2050.05,1066.57,2051.43,1073.17Z"/><path class="cls-2" d="M2023.93,1092.1c-.83,0-1.66,0-2.46-.11-16.85-1.59-19.58-5.51-20.17-8.33-1.26-6,12.74-10.24,24.7-12.75a101.91,101.91,0,0,1,17.12-2.25c4.14-.1,9.82.21,10.62,4,.59,2.81-.34,7.5-15.14,15.71A31.24,31.24,0,0,1,2023.93,1092.1Zm20.42-18.74a89.76,89.76,0,0,0-17.38,2.17c-13.12,2.75-20.34,6.19-21.08,7.65.21.39,3.44,2.93,16,4.11a26.36,26.36,0,0,0,14.39-3c10.09-5.6,12.59-9.1,12.81-10.33A12.72,12.72,0,0,0,2044.35,1073.36Zm4.77.29h0Z"/></g><path class="cls-2" d="M2036.45,1153.47a9.44,9.44,0,0,1-8.45-13.63c.29-.73,4.07-11.1-1.62-37.65a9.43,9.43,0,1,1,18.45-4c7.35,34.25,1.22,47.91-.09,50.31A9.43,9.43,0,0,1,2036.45,1153.47Z"/><path class="cls-6" d="M1351,2704c1.26,33,29.82,55.64,62.2,49.38,63.71-12.33,166.28-43.77,229-122.75,39-49.2,56.59-109.26,63.69-163.19a522.66,522.66,0,0,0,3.83-87.67c-1.26-33-29.86-55.65-62.21-49.38-63.7,12.33-166.27,43.77-229,122.74-19.79,25-34.09,52.73-44.29,81.09C1352.15,2595.52,1349.28,2659.63,1351,2704Z"/><path class="cls-2" d="M1402.33,2756.76a53.19,53.19,0,0,1-33.39-11.54c-12.47-9.9-19.69-24.52-20.33-41.16h0c-1.66-43.57,1-108.55,23.37-170.67,11.09-30.85,26.12-58.35,44.66-81.75,61.24-77.15,159.08-109.79,230.38-123.6a54.88,54.88,0,0,1,44.66,10.44c12.31,9.76,19.72,24.76,20.35,41.17a522.12,522.12,0,0,1-3.85,88.06c-8.73,66.37-30.33,121.67-64.18,164.36-64.48,81.21-172,112.3-230.38,123.59A59.06,59.06,0,0,1,1402.33,2756.76Zm256-425.1a55.2,55.2,0,0,0-10.38,1c-57.72,11.18-164,41.88-227.57,121.9-18.23,23-33,50-43.92,80.41-22.07,61.41-24.74,125.74-23.09,168.9h0c.58,15.24,7.16,28.61,18.54,37.64s25.88,12.4,40.86,9.52c57.72-11.18,164-41.88,227.57-121.9,33.32-42,54.58-96.53,63.2-162a517,517,0,0,0,3.81-87.27c-.58-15.25-7.17-28.62-18.56-37.65A48.51,48.51,0,0,0,1658.29,2331.66Z"/><g class="cls-4"><path class="cls-5" d="M1405.82,2713.72c63.7-12.34,166.27-43.77,229-122.75,39-49.2,56.6-109.26,63.69-163.2a515.79,515.79,0,0,0,4.19-72.8,53.89,53.89,0,0,1,7,24.77,522.7,522.7,0,0,1-3.83,87.67c-7.1,53.93-24.66,114-63.69,163.19-62.7,79-165.27,110.42-229,122.75-32.38,6.26-60.94-16.42-62.2-49.38-.18-4.72-.3-9.71-.35-14.85C1361.2,2707.67,1382.49,2718.23,1405.82,2713.72Z"/></g><g class="cls-3"><path class="cls-2" d="M1375.85,2524.89c79.08,18.57,183.91,2.74,331.63-66.78a521.56,521.56,0,0,0,3.83-87.67c-1.25-33-29.85-55.65-62.2-49.37-63.7,12.33-166.28,43.77-229,122.74C1400.35,2468.79,1386,2496.53,1375.85,2524.89Z"/></g><path class="cls-2" d="M1402.6,2769.46a66.72,66.72,0,0,1-41.58-14.27,67.63,67.63,0,0,1-25.14-50.64c-2.86-74.69,7.11-180.57,70.79-260.81s164.53-114,237.91-128.2c19.76-3.81,39.82.91,55,13a67.61,67.61,0,0,1,25.14,50.64c2.86,74.68-7.1,180.56-70.79,260.82s-164.53,114-237.91,128.19A71.48,71.48,0,0,1,1402.6,2769.46Zm255.61-425.05a41.31,41.31,0,0,0-7.9.78c-56,10.82-159,40.45-220,117.32h0c-61,76.86-66.45,183.91-64.27,240.89.44,11.46,5.32,21.45,13.74,28.14s19.26,9.17,30.53,7c56-10.82,159-40.45,220-117.31s66.45-183.92,64.27-240.9c-.44-11.46-5.32-21.46-13.74-28.14A36,36,0,0,0,1658.21,2344.41ZM1418.5,2453.12h0Z"/><path class="cls-2" d="M1701.54,2349.39,1411.92,2689l267.51-357.24a14.16,14.16,0,0,1,22.67,17C1701.92,2348.92,1701.72,2349.18,1701.54,2349.39Z"/><path class="cls-2" d="M1525.3,2668.9l-30.88-89.9a7.1,7.1,0,0,1,13.43-4.61,9.6,9.6,0,0,1,.27,1Z"/><path class="cls-2" d="M1607.54,2616.82l-41.36-129.9a7.09,7.09,0,1,1,13.51-4.3c.07.23.13.47.18.71Z"/><path class="cls-2" d="M1658.38,2503.76l-30.87-89.9a7.09,7.09,0,0,1,13.42-4.61,7.82,7.82,0,0,1,.27,1Z"/><path class="cls-2" d="M1406.61,2571.76l95-2.64a7.1,7.1,0,0,1,.4,14.19,7.38,7.38,0,0,1-1.06,0Z"/><path class="cls-2" d="M1440.45,2480.49l136.32-.7a7.09,7.09,0,1,1,.08,14.17,6,6,0,0,1-.74,0Z"/><path class="cls-2" d="M1540.46,2407.24l95-2.63a7.09,7.09,0,1,1,.4,14.18,7.38,7.38,0,0,1-1.06-.05Z"/><path class="cls-16" d="M1121.27,1914.66C1021,1925.61,926.55,1874.77,873,1838.12c-27.21-18.62-31.17-54.89-8.62-78.95,44.36-47.34,125.63-117.37,225.88-128.32s194.72,39.9,248.26,76.54c27.21,18.63,31.17,54.9,8.62,79C1302.79,1833.68,1221.52,1903.72,1121.27,1914.66Z"/><path class="cls-2" d="M1093.56,1918.51c-92.54,0-177.3-47.92-221.88-78.44-13.74-9.4-22.26-23.3-24-39.13s3.6-31.24,15-43.39c40.64-43.36,124.22-117.78,227.35-129s200.8,43.37,249.84,76.94c13.74,9.4,22.25,23.29,24,39.12s-3.58,31.24-15,43.39c-40.64,43.36-124.22,117.79-227.35,129A258.4,258.4,0,0,1,1093.56,1918.51ZM1118,1631.72a254.24,254.24,0,0,0-27.46,1.47c-101.62,11.1-184.22,84.7-224.42,127.59-10.43,11.13-15.3,25.21-13.73,39.65s9.38,27.13,22,35.75c48.51,33.2,145,87.24,246.67,76.14s184.22-84.7,224.42-127.58c10.43-11.13,15.3-25.21,13.72-39.66s-9.37-27.13-22-35.74C1293.09,1679.15,1209.24,1631.72,1118,1631.72Z"/><path class="cls-17" d="M873,1838.11c36.86,25.22,93.07,57.14,157.26,71.07,29.08,6.3,59.75,8.89,91,5.49,100.26-11,181.49-81,225.86-128.32,16-17.06,18.67-40.27,9.14-59a54,54,0,0,0-17.74-20c-53.53-36.65-148-87.49-248.27-76.57s-181.52,81-225.89,128.31C841.83,1783.22,845.8,1819.49,873,1838.11Z"/><path class="cls-2" d="M1093.36,1918.52a301,301,0,0,1-63.59-7c-65-14.12-121.87-46.64-158.09-71.44-13.74-9.39-22.25-23.29-24-39.12s3.58-31.24,15-43.39c40.63-43.35,124.2-117.76,227.36-129s200.82,43.39,249.85,77a55.75,55.75,0,0,1,18.51,20.84c10.32,20.26,6.58,44.47-9.52,61.66-40.64,43.36-124.21,117.78-227.32,129.06A262,262,0,0,1,1093.36,1918.52ZM1118,1631.71a253.37,253.37,0,0,0-27.42,1.47c-101.65,11.12-184.24,84.71-224.43,127.58-10.43,11.14-15.3,25.22-13.72,39.66s9.38,27.13,22,35.74h0c35.87,24.56,92.13,56.76,156.42,70.72,31.12,6.74,61.5,8.57,90.26,5.45,101.6-11.11,184.2-84.71,224.39-127.59,14.73-15.73,18.17-37.83,8.76-56.3a51.27,51.27,0,0,0-17-19.09C1293.1,1679.16,1209.24,1631.71,1118,1631.71Z"/><g class="cls-3"><path class="cls-2" d="M1071.76,1907c27.45,5.94,56.38,8.39,85.89,5.18,94.6-10.34,171.25-76.42,213.12-121.09,15.08-16.1,17.62-38,8.63-55.65-27.42-5.94-56.36-8.35-85.83-5.14-94.59,10.31-171.29,76.41-213.12,121.09C1065.34,1867.44,1062.84,1889.32,1071.76,1907Z"/></g><g class="cls-4"><path class="cls-5" d="M855.39,1805.59a55.48,55.48,0,0,1,7.54-10.13c44.37-47.3,125.64-117.35,225.9-128.31s194.73,39.92,248.27,76.57a53.2,53.2,0,0,1,19.23,23.18c13.54-23.21,7.48-52.64-16.14-68.78-53.54-36.65-148-87.49-248.27-76.57s-181.53,81-225.9,128.31C850.94,1766,847.74,1787.52,855.39,1805.59Z"/></g><path class="cls-2" d="M1092.74,1931.3c-90.24,0-172.72-42.7-228.26-80.72a66.48,66.48,0,0,1-11.1-101.74c51.11-54.53,133.41-121.88,235.26-133s196.74,36.88,258.41,79.1a66.47,66.47,0,0,1,11.12,101.73c-51.12,54.54-133.43,121.88-235.27,133A276.85,276.85,0,0,1,1092.74,1931.3Zm25.3-286.85a239.63,239.63,0,0,0-26.13,1.41c-97.54,10.65-177.51,82-216.5,123.63-7.85,8.37-11.53,18.87-10.36,29.55s7,20.15,16.49,26.63c47.05,32.2,140.53,84.64,238.09,74s177.51-82,216.5-123.62c7.85-8.38,11.53-18.88,10.36-29.56s-7-20.14-16.49-26.62C1287.17,1690.54,1205.85,1644.45,1118,1644.45Z"/><path class="cls-2" d="M1363.15,1759.51l-445,35,441.57-65a15.11,15.11,0,0,1,4.41,29.89C1363.84,1759.44,1363.48,1759.48,1363.15,1759.51Z"/><path class="cls-2" d="M995.6,1709.3l69.94,64.36a7.09,7.09,0,1,1-9.61,10.44,7.46,7.46,0,0,1-.72-.77Z"/><path class="cls-2" d="M1083.49,1667.47,1181.7,1762a7.09,7.09,0,0,1-9.83,10.21c-.17-.17-.34-.35-.5-.53Z"/><path class="cls-2" d="M1206.25,1684.69l70,64.36a7.09,7.09,0,1,1-9.61,10.44,7.46,7.46,0,0,1-.72-.77Z"/><path class="cls-2" d="M1014.54,1861.5l40.55-86a7.1,7.1,0,0,1,12.84,6.06,8,8,0,0,1-.52.91Z"/><path class="cls-2" d="M1109.81,1881.5l60.92-122a7.09,7.09,0,0,1,12.68,6.33,6.6,6.6,0,0,1-.36.64Z"/><path class="cls-2" d="M1225.08,1835.91l40.55-86a7.1,7.1,0,0,1,12.84,6.06,9.11,9.11,0,0,1-.52.92Z"/><path class="cls-18" d="M1179,2235.77c101.34,184.67,226.33,310.93,631.4,88.66,488.92-268.22,1027.08-859,968.23-966.31-44.26-80.62-500.13-23.53-931.45,123.73-70.24,24-139.84,50.33-206.91,78.89q-32.33,13.77-63.83,28.22c-46.1,21.16-90.66,43.4-133,66.61-47.46,26-88.82,51.42-124.73,76.27C1048.42,1918.56,1089.51,2072.71,1179,2235.77Z"/><g class="cls-4"><path class="cls-5" d="M1847.15,1481.85a264.47,264.47,0,0,0,12.68,40.3c420.82-138.61,853.91-190.61,897-112.12,6,10.87,5.81,26.71.16,46.71,23.67-45.14,32.09-79.52,21.64-98.62C2734.34,1277.5,2278.47,1334.59,1847.15,1481.85Z"/></g><g class="cls-4"><path class="cls-5" d="M1640.24,1560.74q-32.33,13.77-63.83,28.22a159.1,159.1,0,0,1,5.7,39.49q26.88-11.91,54.31-23.39A334.52,334.52,0,0,1,1640.24,1560.74Z"/></g><g class="cls-9"><path class="cls-5" d="M1339.46,1717.8c-7.11,4.69-14,9.33-20.77,14Q1328.79,1724.82,1339.46,1717.8Z"/><path class="cls-2" d="M1320,1733.78l-2.7-3.88c6-4.22,12.65-8.69,20.82-14.07l2.6,4Q1330.11,1726.77,1320,1733.78Z"/></g><g class="cls-4"><path class="cls-5" d="M1121.17,1960.15c33-60.35,94.35-123.12,195.9-190.12a347.89,347.89,0,0,1,1.62-38.19C1201.27,1812.93,1142.62,1887.9,1121.17,1960.15Z"/></g><g class="cls-3"><path class="cls-2" d="M1817,2287.27c-405.08,222.27-530.06,96-631.4-88.67-42.45-77.37-73.93-152.75-66.48-230.56-.72,2.76-1.38,5.52-2,8.27,10.8-48.46,37.71-98.06,87.52-149.84-15.77,85.14,17.56,166.89,63.71,251.06,101.34,184.71,226.33,310.94,631.41,88.7,329.2-180.63,680.61-507.42,857.17-734.44C2637.52,1644.88,2211.25,2071,1817,2287.27Z"/></g><path class="cls-2" d="M1456,2457.67q-42.69,0-79.34-10.44c-102.94-29.25-162.2-115.44-210.9-204.22s-89.56-185.05-58.92-287.59c31.84-106.56,139.56-209,329.31-313.08h0c219.72-120.55,531.17-229.37,833.11-291.09,110.28-22.54,473.86-89.19,522.59-.38S2589,1710.53,2510.75,1791.43c-214.28,221.5-473.39,425.71-693.11,546.26C1671.28,2418,1552,2457.67,1456,2457.67ZM2632.7,1336.52q-8.85,0-18.47.21c-89.9,1.9-207.1,17.15-338.93,44.1-299.15,61.15-607.42,168.81-824.63,288-182.45,100.1-285.46,196.68-314.91,295.25-27.46,91.9,10.91,181.4,56.46,264.43s100.42,163.48,192.69,189.69c98.95,28.11,235.76-6.87,418.21-107,217.21-119.17,473.63-321.33,685.93-540.77,93.56-96.71,169.39-187.36,219.29-262.16,68.95-103.35,61.09-135.49,57-142.88C2761.52,1358.39,2740.74,1336.52,2632.7,1336.52ZM1443.4,1655.58h0Z"/><path class="cls-2" d="M1833.52,1992.42a115.71,115.71,0,0,1-56.12-217h0a115.72,115.72,0,1,1,56.12,217Zm-.34-201.21a85,85,0,0,0-41.19,10.64h0a85.56,85.56,0,1,0,41.19-10.64Zm-48.48-2.58h0Z"/><path class="cls-2" d="M1833.52,1992.42a115.71,115.71,0,0,1-56.12-217h0a115.72,115.72,0,1,1,56.12,217Zm-.34-201.21a85,85,0,0,0-41.19,10.64h0a85.56,85.56,0,1,0,41.19-10.64Zm-48.48-2.58h0Z"/><path class="cls-2" d="M2394.69,1546.37l-109.09-172.3a14.18,14.18,0,1,1,24-15.17,14.48,14.48,0,0,1,.83,1.49l87.66,184.12a1.92,1.92,0,0,1-3.36,1.86Z"/><path class="cls-2" d="M1679.54,2085.09,1436.9,1670.84a14.16,14.16,0,0,1,24.43-14.31l.35.63,221.22,426.08a1.92,1.92,0,0,1-3.36,1.85Z"/><path class="cls-2" d="M2064.79,1793.71l-187.4-314.16a14.16,14.16,0,1,1,24.33-14.51c.15.26.32.56.46.83l166,326a1.92,1.92,0,0,1-3.36,1.85Z"/><path class="cls-2" d="M2185.72,1581.82l188.11,315.46a14.16,14.16,0,1,1-24.32,14.5c-.16-.26-.32-.56-.46-.82l-166.68-327.29a1.91,1.91,0,0,1,3.35-1.85Z"/><path class="cls-2" d="M1731.77,1625.81l313.18,542a14.16,14.16,0,0,1-24.52,14.17c-.08-.15-.19-.34-.26-.49l-291.75-553.84a1.92,1.92,0,0,1,3.35-1.86Z"/><path class="cls-2" d="M1333.23,2005.92l238.91,407.48a14.16,14.16,0,1,1-24.42,14.33c-.12-.2-.25-.45-.36-.65l-217.48-419.3a1.92,1.92,0,0,1,3.35-1.86Z"/><path class="cls-12" d="M1744.26,1714.34A185.18,185.18,0,0,0,1671,1965.82c49.2,89.67,161.79,122.54,251.5,73.32s122.49-161.86,73.31-251.5S1833.93,1665.15,1744.26,1714.34Zm40.44,74.29a100.62,100.62,0,1,1-39.46,136.71A100.61,100.61,0,0,1,1784.7,1788.63Z"/><g class="cls-3"><path class="cls-2" d="M1646.78,1875.43a184.37,184.37,0,0,0,22.56,99.7c49.17,89.65,161.79,122.51,251.49,73.3a185.41,185.41,0,0,0,90.7-207.09,185.25,185.25,0,0,1-95.85,151.72c-89.7,49.24-202.32,16.35-251.53-73.32A184.74,184.74,0,0,1,1646.78,1875.43Z"/></g><path class="cls-2" d="M1784.7,1788.63a100.63,100.63,0,0,0-39.46,136.71,99.47,99.47,0,0,0,16.38,22,100.64,100.64,0,0,0,41.51,25.37,100.69,100.69,0,0,0,78.82-7.86,100.6,100.6,0,0,0,39.47-136.72,100.65,100.65,0,0,0-62.51-48.65,100.43,100.43,0,0,0-48.68-.64A98.79,98.79,0,0,0,1784.7,1788.63Z"/><g class="cls-9"><path class="cls-5" d="M1858.91,1779.44l-55.78,193.23a99.41,99.41,0,0,0,43.15,3.81l51.17-177.28A99.48,99.48,0,0,0,1858.91,1779.44Z"/><path class="cls-2" d="M1833.37,1979.69a103,103,0,0,1-30.95-4.77l-2.19-.7,57-197.64,2.22.58a102.27,102.27,0,0,1,39.46,20.23l1.18,1-52,180.23-1.53.21A100.52,100.52,0,0,1,1833.37,1979.69Zm-27.33-8.61a97.52,97.52,0,0,0,38.4,3.25L1894.75,1800a97.65,97.65,0,0,0-34.22-17.71Z"/></g><g class="cls-9"><path class="cls-5" d="M1810.23,1778.8l-48.61,168.5a97.48,97.48,0,0,0,21.11,16.37l54.12-187.49A96.37,96.37,0,0,0,1810.23,1778.8Z"/><path class="cls-2" d="M1784.16,1967.21l-2.61-1.5a99.64,99.64,0,0,1-21.61-16.76l-1-1,49.36-171.12,1.33-.33a99.12,99.12,0,0,1,27.27-2.69l3,.13Zm-19.89-20.59a95.57,95.57,0,0,0,17,13.46l52.42-181.62a96,96,0,0,0-21.62,2.33Z"/></g><path class="cls-2" d="M1833.72,2077a200.49,200.49,0,0,1-176-104c-53.14-96.83-17.58-218.84,79.25-272h0c96.86-53.13,218.9-17.57,272,79.28s17.56,218.86-79.29,272A199.13,199.13,0,0,1,1833.72,2077Zm-82.2-349.46c-82.24,45.12-112.44,148.74-67.31,231s148.75,112.48,231,67.34,112.46-148.75,67.34-231-148.77-112.46-231-67.32Zm82,264.84a115.71,115.71,0,0,1-56.12-217h0a115.72,115.72,0,1,1,56.12,217Zm-.34-201.21a85,85,0,0,0-41.19,10.64h0a85.56,85.56,0,1,0,41.19-10.64Zm-48.48-2.58h0Z"/><path class="cls-17" d="M1238.85,2116.13c-115.4,63.32-150.52,121.45-130.3,158.3s88.11,38.47,203.51-24.85,226.23-182.87,214.4-204.43S1354.25,2052.82,1238.85,2116.13Z"/><path class="cls-2" d="M1163.07,2302.44c-27.44,0-46.88-9.18-56.59-26.88-23.63-43.07,25.43-103.44,131.23-161.5,116.46-63.89,278-93.38,290.82-70,7.77,14.16-25.85,55.45-59.89,89.36-46.84,46.67-103.5,89.78-155.44,118.28-55.06,30.21-101.62,47.12-138.39,50.27Q1168.72,2302.44,1163.07,2302.44Zm337.18-262c-50.48,0-168.5,27.41-260.27,77.76-103.21,56.63-151.58,114.61-129.36,155.1,10.07,18.35,32.12,26.62,63.79,23.92,35.6-3,82.81-20.24,136.52-49.71,51.57-28.29,107.84-71.11,154.38-117.47,44.58-44.42,63.47-75.76,59.08-83.76C1522.24,2042.35,1513.61,2040.44,1500.25,2040.44Z"/><g class="cls-3"><path class="cls-2" d="M1108.54,2274.43c20.23,36.85,88.12,38.48,203.51-24.84s226.24-182.87,214.42-204.43c-1.74-3.18-6.77-5.26-14.41-6.27-37.64,46.54-113,114.33-190.47,156.81-115.39,63.33-183.28,61.69-203.51,24.84a46.42,46.42,0,0,1-2.4-5.1C1101.45,2238.26,1099.72,2258.38,1108.54,2274.43Z"/></g><g class="cls-4"><path class="cls-5" d="M1103.34,2257.64c16.56-30.95,57-67.34,126.79-105.65,108.34-59.43,256.28-88.85,283.81-74.4,10.69-15.35,15.51-27,12.53-32.43-11.82-21.56-172.22,7.65-287.61,71C1139.69,2170.52,1099.81,2221.1,1103.34,2257.64Z"/></g><path class="cls-2" d="M1163.27,2314.22c-42.32,0-60.1-20.18-67.13-33-13.05-23.8-25.94-88.72,135.9-177.51,52.87-29,120.8-54.06,186.36-68.73,105.66-23.63,116.81-3.33,120.47,3.34s14.8,27-61.91,103.39c-47.59,47.42-105.22,91.25-158.09,120.26-56.51,31-104.64,48.39-143,51.68Q1169.22,2314.23,1163.27,2314.22ZM1500,2052c-44,0-159.94,24.79-254.34,76.58-114,62.57-138.45,114-124.7,139.08,9.67,17.63,33.87,19.45,52.44,17.84,34-2.9,79.57-19.6,131.86-48.29,105.31-57.77,196.68-156.23,207-184.21A60,60,0,0,0,1500,2052Zm16.09,2.33h0Z"/><path class="cls-2" d="M1168.62,2243.68l352.57-208.09a11.8,11.8,0,0,1,12,20.32c-.19.11-.41.24-.59.33Z"/><g class="cls-3"><path class="cls-2" d="M1640.24,1560.74a334.52,334.52,0,0,0-3.82,44.32c-1.13,58.75,15.23,121.37,77.29,162.06,133.67,87.59,312.16-18.26,207.51-144.83-30-36.28-49.28-70-61.39-100.14a264.47,264.47,0,0,1-12.68-40.3c-8.77,3-17.54,6-26.29,9.1-7.69,2.7-15.33,5.41-23,8.16-2.41.84-4.82,1.71-7.24,2.59-7,2.55-14,5.11-20.94,7.68l-2.06.78c-7.5,2.77-15,5.55-22.45,8.41-.91.33-1.77.68-2.68,1q-12.69,4.82-25.29,9.74c-2.06.82-4.12,1.61-6.18,2.43q-10,3.93-19.92,7.94c-.87.34-1.77.68-2.64,1.06-6.85,2.78-13.67,5.55-20.49,8.37l-4.1,1.69q-10.11,4.18-20.12,8.44C1642.57,1559.73,1641.4,1560.26,1640.24,1560.74Z"/></g><path class="cls-5" d="M1834.12,1412.71s-41.55,85,56.41,203.52c85.48,103.42-60.34,189.92-169.55,118.35s-45.2-226-38.68-253.89"/><path class="cls-2" d="M1807.12,1763.13c-28.44,0-59-8-87.43-26.58C1621.17,1672,1661,1542.47,1676,1493.72c1.82-5.89,3.25-10.55,4-13.57l4.59,1.07c-.74,3.19-2.2,7.91-4,13.89-14.72,47.83-53.83,174.86,41.73,237.49,64.38,42.21,140.22,28.13,173.56-9.12,26.53-29.63,23.93-68.18-7.13-105.75-97.79-118.32-57.13-205.19-56.7-206l4.24,2.07c-.41.83-39.63,85.16,56.1,201,32.22,39,34.84,80.82,7,111.91C1879.51,1748.8,1845.26,1763.13,1807.12,1763.13Z"/><g class="cls-3"><path class="cls-2" d="M1721,1734.56c91.66,60.07,209.13,8.81,193.94-70.38-34.68,39.2-112.19,52.23-176.9,9.84-73.6-48.25-68.52-134.09-55.39-193.51l-.34.17C1675.78,1508.54,1611.79,1663,1721,1734.56Z"/></g><path class="cls-2" d="M1838.65,1414.92c1.44,16.85,1.67,32,2.52,47.29.37,3.81.34,7.62,1,11.43s.54,7.64,1.39,11.43l1.74,11.47,2.6,11.41a90.93,90.93,0,0,0,3.28,11.3c1.29,3.73,2.39,7.51,3.94,11.16l4.89,10.87,2.44,5.44,2.9,5.25c3.91,7,7.49,14.13,12.18,20.73,4.45,6.72,8.65,13.58,13.83,19.87l15.4,20.08a113.65,113.65,0,0,1,8,11.61c2.67,3.87,4.65,8.35,6.87,12.6a130.64,130.64,0,0,1,5.36,13.65c1.3,4.82,2.77,9.57,3.32,14.65,1,5,.9,10.14,1,15.26-.43,5.14-.68,10.32-2,15.35a81,81,0,0,1-12,28.18,96.42,96.42,0,0,1-20,22,117.26,117.26,0,0,1-24.38,15.46,141.79,141.79,0,0,1-13.11,5.55c-4.48,1.43-8.94,3-13.51,4.08-36.44,9.27-75.19,4.73-108.88-10.35a167.84,167.84,0,0,1-46.28-30.43,148.66,148.66,0,0,1-32.87-45.52A176.78,176.78,0,0,1,1644,1631.4a253.78,253.78,0,0,1,.28-53.8c1.91-17.67,5.33-34.9,8.43-52.13,4-16.94,10-33.65,24.69-45.93l.53-.45a5.82,5.82,0,0,1,8.18.74,5.94,5.94,0,0,1,1.09,2c3.18,10.28,2.83,18.93,2,27.33a165.94,165.94,0,0,1-5.18,24.13c-2.26,7.82-4.68,15.61-6.18,23.58s-2.69,15.93-3.49,23.89a225,225,0,0,0-.29,47.32,146.54,146.54,0,0,0,11.76,44.08,118.31,118.31,0,0,0,26.07,36.1c10.84,10.27,24.09,18.64,38,24.93,27.84,12.49,59.88,16.09,89.07,8.62,3.67-.81,7.17-2.12,10.73-3.22,3.41-1.43,7-2.59,10.2-4.34a86.84,86.84,0,0,0,18.3-11.56,66.37,66.37,0,0,0,13.92-15.3,50.81,50.81,0,0,0,7.73-18.13c.91-3.16.94-6.47,1.31-9.72-.19-3.32,0-6.63-.73-10-.28-3.35-1.41-6.67-2.25-10a101.21,101.21,0,0,0-3.9-9.88c-1.74-3.21-3.09-6.54-5.26-9.62a87.42,87.42,0,0,0-6.35-9.26l-15.44-20.12c-21.09-28.07-38.56-59.51-49.29-94.18a148.86,148.86,0,0,1-8.1-54.14c.74-18.38,5.33-37.43,19.79-51.84a5.26,5.26,0,0,1,9,3.27Z"/><g class="cls-3"><path class="cls-2" d="M1318.69,1731.84a347.89,347.89,0,0,0-1.62,38.19c1.11,68,27.39,106.8,87.41,136.94,86.65,43.55,242.09-16.94,246.54-86.48,5.56-87.06-99-77.63-99-77.63s31.39-52.82,30.11-114.41a159.1,159.1,0,0,0-5.7-39.49c-5.76,2.66-11.52,5.32-17.21,8s-11.41,5.38-17.07,8.09-11.31,5.44-16.89,8.17q-42,20.61-81.82,42.36c-10.06,5.53-19.89,11-29.41,16.52-4.51,2.57-9,5.16-13.32,7.72-.94.56-1.88,1.09-2.78,1.62-4.5,2.69-9,5.31-13.33,8q-11.89,7.15-23.14,14.26l-7.47,4.74-7.31,4.72c-2.43,1.56-4.81,3.13-7.2,4.7Q1328.79,1724.84,1318.69,1731.84Z"/></g><path class="cls-5" d="M1411.35,1516.67s94.92-8.3,137.1,72.57c36.14,69.27-11.12,148.89-11.12,148.89s85.88-7.76,81.31,63.74c-3.65,57.1-131.31,106.8-202.49,71s-84.57-86.44-61.44-202.7"/><path class="cls-2" d="M1473,1887.31c-20.7,0-40.78-3.71-57.93-12.33-71.25-35.83-86.48-85.71-62.7-205.27l4.63.92c-23.25,116.9-8.63,165.53,60.19,200.13,45.13,22.69,111.53,10,153.81-14.2,27.55-15.79,44-35.78,45.27-54.84,1.15-18.13-3.62-32.54-14.19-42.84-22.51-21.93-64.13-18.44-64.56-18.41l-4.59.42,2.35-4c.47-.78,46.16-79.32,11.06-146.6-40.94-78.49-133.88-71.37-134.81-71.3l-.41-4.7c1-.08,97-7.51,139.41,73.83,31.83,61-.37,130.6-9.13,147.4,11.65-.4,44.09.59,64,20,11.6,11.31,16.85,27,15.6,46.52-1.32,20.67-18.68,42-47.63,58.64C1546,1876.37,1508.58,1887.31,1473,1887.31Z"/><path class="cls-2" d="M1410.91,1511.66a70.39,70.39,0,0,1,21.23-6,96.17,96.17,0,0,1,21.65-.32,133,133,0,0,1,42.09,11.85c13.56,6.09,25.57,15.49,36.43,25.63,5.19,5.39,10.47,10.67,14.78,16.75,2.16,3,4.75,5.77,6.57,9l5.71,9.49c.92,1.61,2,3.13,2.77,4.81l2.31,5.14c1.47,3.46,3.2,6.82,4.41,10.37,2.24,7.15,4.64,14.28,5.72,21.66,1.66,7.3,1.9,14.7,2.46,22.05l-.06,11c0,3.67-.52,7.26-.77,10.89a206.11,206.11,0,0,1-8.83,42.09c-2.21,6.78-4.63,13.46-7.44,20-1.37,3.29-2.85,6.54-4.41,9.77s-3.11,6.28-5.22,10L1536,1723.09c4.2-.31,7.27-.32,10.84-.28s6.88.22,10.31.55a123.94,123.94,0,0,1,20.68,3.54c13.65,3.57,28.08,10.12,39.1,22.24s16.54,28.59,16.86,43.24a92.5,92.5,0,0,1-.12,11l-.83,6.27c-.41,2-1,4-1.51,6a74.62,74.62,0,0,1-10.47,20.86c-8.84,12-19.55,21.17-30.82,28.7a190.7,190.7,0,0,1-35.46,18.55,224.49,224.49,0,0,1-77.24,16.19,166.83,166.83,0,0,1-40.4-3.92,131.47,131.47,0,0,1-20-6.28c-3.15-1.48-6.7-2.88-9.49-4.48l-8.69-4.73c-11.42-6.69-22.83-14.19-32.72-24.18-9.86-9.78-18.79-21.39-24.37-34.46-1.72-3.14-2.67-6.51-3.91-9.8a73,73,0,0,1-3.1-10l-2.39-10.07-1.44-10a81.66,81.66,0,0,1-1-10l-.57-9.94,0-19.57c.22-12.93.58-25.83,3.65-38.2,2.75-12.41,7.4-24.4,16.77-35.17a5.8,5.8,0,0,1,8.18-.57,5.73,5.73,0,0,1,1.59,2.25l.1.28a69.43,69.43,0,0,1,4.15,19.35,111.7,111.7,0,0,1,.09,18.28c-.44,12-2.68,23.61-3.8,35.28-.62,5.82-.49,11.57-.6,17.36l.51,8.49a60.24,60.24,0,0,0,.8,8.38l1.15,8.24,1.9,7.9a49.17,49.17,0,0,0,2.38,7.64c1,2.47,1.6,5.09,2.91,7.34,8.49,19.12,24.74,33.78,44.61,45l7.53,4.1c2.56,1.47,4.8,2.24,7.2,3.43a101.53,101.53,0,0,0,15.24,4.76,136.93,136.93,0,0,0,33,3.16,194.83,194.83,0,0,0,66.62-14,160.76,160.76,0,0,0,29.89-15.6c9.22-6.09,17.31-13.37,23.12-21.24a44.47,44.47,0,0,0,6.1-12l.76-2.94c.1-1,.22-1.92.38-2.88a63.11,63.11,0,0,0,.07-7.41c-.3-9.9-3.4-18.06-9-24.29-11.06-12.72-35.54-17.48-55.89-16.31l-28.16,1.62,13.82-24.36c1.19-2.1,2.72-5,4-7.72s2.61-5.56,3.8-8.41c2.44-5.68,4.54-11.52,6.46-17.39a175.5,175.5,0,0,0,7.54-35.84c.19-3,.68-6,.65-9l.06-9c-.52-5.88-.62-11.86-2-17.54-.79-5.85-2.75-11.31-4.42-16.88-.92-2.74-2.31-5.3-3.42-8l-1.75-4c-.62-1.31-1.5-2.54-2.23-3.81l-4.55-7.61c-1.41-2.62-3.53-4.69-5.27-7-1.92-2.21-3.42-4.79-5.64-6.72l-6.32-6a128.88,128.88,0,0,0-29.42-18.87c-21.33-10.45-44.78-15.21-70.07-24.93l-.51-.2a5.35,5.35,0,0,1-.37-9.83Z"/><path class="cls-2" d="M1538.39,1753.29c-5.7.94-12.5,1.15-18.8,1.48s-12.92.42-19.45.92-13.08,1.21-19.71,2.3c-6.72.93-13.23,2.7-20.31,4.32l-.11,0a1.75,1.75,0,0,1-2.1-1.31,1.78,1.78,0,0,1,.39-1.55,77.65,77.65,0,0,1,16.93-14.53,103.45,103.45,0,0,1,20.2-10,99.45,99.45,0,0,1,21.81-5.66,79.75,79.75,0,0,1,11.26-.72,56.42,56.42,0,0,1,11.7,1.2,11.86,11.86,0,0,1-.48,23.3Z"/><path class="cls-5" d="M1396,1248.33l-12.48-52.06a22,22,0,0,0-23-16.83c-22,1.54-56.84,7.07-68,26.41-16.76,29-1,63.3,25.39,73.07,19,7,45.63,1.14,63.46-4.53A22,22,0,0,0,1396,1248.33Z"/><path class="cls-2" d="M1338.44,1284.5a61.33,61.33,0,0,1-21.3-3.37c-13.87-5.14-25.32-17-30.63-31.74a52.48,52.48,0,0,1,4-44.73c11.29-19.54,44.23-25.78,69.88-27.57a24.35,24.35,0,0,1,25.43,18.63l12.47,52.06a24.39,24.39,0,0,1-16.18,28.86C1369.52,1280.65,1353.48,1284.5,1338.44,1284.5Zm23.71-102.75c-.47,0-.94,0-1.41,0-20.06,1.4-55.33,6.55-66.12,25.23a47.82,47.82,0,0,0-3.68,40.76c4.85,13.44,15.26,24.25,27.84,28.92,18.15,6.73,43.69,1.23,61.92-4.57a19.64,19.64,0,0,0,13-23.26l-12.47-52.06A19.59,19.59,0,0,0,1362.15,1181.75Z"/><g class="cls-3"><path class="cls-2" d="M1318,1278.93c19,7,45.64,1.14,63.47-4.56a21.91,21.91,0,0,0,14.58-26l-4.06-16.93a21.77,21.77,0,0,1-7.48,4.16c-17.83,5.66-44.44,11.6-63.47,4.55-14-5.19-25-17.3-29.74-31.86C1276.71,1236.75,1292.34,1269.45,1318,1278.93Z"/></g><path class="cls-2" d="M1338.4,1293.91a70.93,70.93,0,0,1-24.54-3.93c-16.45-6.1-30-20.08-36.23-37.39a61.82,61.82,0,0,1,4.73-52.65c13.36-23.13,49.47-30.31,77.39-32.26a33.81,33.81,0,0,1,35.26,25.85l12.48,52a33.87,33.87,0,0,1-22.5,40.05C1371.66,1289.87,1354.69,1293.91,1338.4,1293.91Zm23.73-102.73-.73,0c-30.5,2.13-52.42,9.81-58.62,20.53a38.57,38.57,0,0,0-3,32.85c3.91,10.86,12.23,19.56,22.24,23.27,12.19,4.52,32,2.85,55.78-4.71a10.18,10.18,0,0,0,6.71-12.07L1372.07,1199A10.19,10.19,0,0,0,1362.13,1191.18Z"/><path class="cls-11" d="M1656,667.89a475,475,0,0,0-33.49,38.89,21.89,21.89,0,0,1-17.73,8.56c-25-.45-91.5-3.63-200.48-22.76-159-27.92-319.3-96.74-313.6-129,8.65-49,301.14-35.65,557.65,69A21.85,21.85,0,0,1,1656,667.89Z"/><path class="cls-2" d="M1605.15,717.71h-.44c-23.76-.43-90.9-3.5-200.84-22.8-149.1-26.17-287.49-84.23-311.6-118.65-3.3-4.71-4.62-9.11-3.92-13.08,1-5.78,5.35-10.82,12.87-15,57.93-32,319.35-11.08,548,82.18a24.34,24.34,0,0,1,14.63,17.49,24,24,0,0,1-6.17,21.66h0a469.83,469.83,0,0,0-33.32,38.69A24.39,24.39,0,0,1,1605.15,717.71ZM1196.06,538.65c-43.65,0-76.29,4.71-92.56,13.68-6.21,3.43-9.74,7.35-10.5,11.67-.48,2.69.58,5.9,3.13,9.54,23.11,33,162.93,91.15,308.56,116.71,109.6,19.24,176.46,22.31,200.11,22.73a19.44,19.44,0,0,0,15.82-7.64,475.78,475.78,0,0,1,33.66-39.08h0a19.06,19.06,0,0,0,5-17.41,19.64,19.64,0,0,0-11.8-14.1C1484.74,568.38,1305.72,538.65,1196.06,538.65Z"/><g class="cls-3"><path class="cls-2" d="M1090.69,563.59c-1.17,6.6,4.66,14.77,16,23.81,46.79-36.14,313.87-17.29,550.44,79.17a21.86,21.86,0,0,0-8.82-34C1391.82,528,1099.33,514.56,1090.69,563.59Z"/></g><path class="cls-2" d="M1605.15,727.14h-.61c-24-.42-91.71-3.53-202.3-22.94-138.36-24.28-289.79-82.69-317.7-122.53-4.79-6.83-6.63-13.6-5.48-20.13,1.54-8.73,7.46-16,17.6-21.58,60.89-33.63,321.24-14.12,556.12,81.69a33.65,33.65,0,0,1,11.71,54.42h0A461.91,461.91,0,0,0,1631.83,714,33.84,33.84,0,0,1,1605.15,727.14Zm-408.74-179.6c-41.7,0-72.81,4.48-88.35,13.06-4.28,2.36-5.64,4.33-5.77,5,.7,4.44,19.35,25.23,93.63,55.52,62.58,25.52,139.26,47.31,210.4,59.8,109,19.12,175.22,22.17,198.65,22.59a10.07,10.07,0,0,0,8.18-4,485.49,485.49,0,0,1,34.32-39.86h0a9.75,9.75,0,0,0,2.54-8.91,10,10,0,0,0-6.14-7.32C1481.7,577.33,1303.91,547.54,1196.41,547.54Z"/><path class="cls-18" d="M1409.32,1216.39c72.47,107.95,254.25,186.25,254.25,186.25s178.91,84.74,307.82,67.83c106.81-14,96.68-94.61,96.68-94.61s-1.84.19-5.39.37c-29.54,1.66-176.85,5.33-355.09-71-175-83.38-269.56-196.39-287.83-219.66-2.21-2.79-3.28-4.29-3.28-4.29S1349.29,1126.94,1409.32,1216.39Z"/><path class="cls-2" d="M1935.66,1475c-123.21,0-271.47-69.49-273.1-70.26s-183.17-79.78-255.2-187.07h0c-60.64-90.35,7.1-137.87,7.79-138.34l1.91-1.3,1.34,1.88s1.07,1.5,3.21,4.21c17.24,21.94,112.09,135.64,287,219,178.1,76.22,326.07,72.3,353.94,70.74,3.44-.18,5.24-.37,5.28-.37l2.29-.24.29,2.29c.1.83,9.18,83.08-98.71,97.25A277.48,277.48,0,0,1,1935.66,1475Zm-524.38-260c71.25,106.13,251.41,184.62,253.22,185.4s179.88,84.32,306.58,67.66c93.31-12.25,95.35-76.8,94.81-89.73-.83.06-1.86.13-3.09.19-28,1.59-177,5.53-356.14-71.16-175.94-83.84-271.41-198.28-288.76-220.37-.77-1-1.41-1.8-1.91-2.46-10.38,8.1-57.81,51.35-4.71,130.47Z"/><g class="cls-3"><path class="cls-2" d="M1401.7,1095.94c-2.52,20.88,2.41,47.65,24.32,80.28,72.47,108,254.24,186.25,254.24,186.25s178.91,84.75,307.82,67.83c42.14-5.53,66-21.43,79.57-38.64-3.11,24.2-19.43,68.72-96.26,78.81-128.91,16.92-307.82-67.83-307.82-67.83s-181.78-78.3-254.25-186.25C1368.93,1156.21,1386.13,1115.9,1401.7,1095.94Z"/></g><g class="cls-19"><path class="cls-5" d="M2053.84,1402.09s-1.84.18-5.39.37c-29.53,1.66-176.84,5.32-355.09-71-175-83.39-269.56-196.39-287.83-219.66-2.2-2.79-3.28-4.29-3.28-4.29a55.21,55.21,0,0,0-5.34,4.38,80.74,80.74,0,0,1,24.22-29.79s1.07,1.51,3.27,4.3c18.27,23.26,112.84,136.27,287.84,219.66,178.24,76.29,325.55,72.62,355.08,71,3.55-.19,5.39-.38,5.39-.38s4.73,37.74-26.51,66.07A81.5,81.5,0,0,0,2053.84,1402.09Z"/></g><path class="cls-2" d="M2038.82,1391.92c-56.14,0-186.24-8.17-337.17-72.78l-.55-.25c-178.43-85-275.56-201.48-293.22-224l-1.5-2.33c-84.33-161.28-89.75-348.8-14.86-514.46l13.75,6.22-13.75-6.22c64.64-143,181.11-252.27,327.94-307.68s306.43-50.31,449.43,14.33S2421.18,465.9,2476.6,612.73s50.33,306.44-14.32,449.45c-74.89,165.66-219.23,285.48-396,328.72l-1.35.33-1.39.08C2058.68,1391.58,2050.29,1391.92,2038.82,1391.92Zm-325-100.42c172.69,73.85,316.1,71.3,346.64,69.74,167.1-41.31,303.47-154.77,374.32-311.5,61.32-135.66,66.14-287.07,13.58-426.36S2292.12,373.63,2156.46,312.3s-287-66.15-426.34-13.59S1480.36,454.92,1419,590.58c-70.84,156.73-65.93,334.06,13.46,486.79C1451.5,1101.33,1544.36,1210.68,1713.81,1291.5Z"/><path class="cls-2" d="M1935.06,1487.81c-124.13,0-268.3-67-277.71-71.41-10.57-4.58-187.13-82.22-260.56-191.6h0c-67.62-100.75,10.41-155.44,11.21-156l12.19-8.28,8.57,12c.1.13,1,1.43,2.85,3.71,16.94,21.57,110,133.14,282.2,215.25,175.45,75,320.67,71.19,348,69.66,2.92-.15,4.51-.3,4.71-.32l14.65-1.47,1.86,14.6c.12,1,10.61,95.67-109.69,111.47A295,295,0,0,1,1935.06,1487.81ZM1421.86,1208c69.11,103,245.91,180,247.68,180.81l.49.22c1.75.82,176.46,82.66,299.4,66.5,65.49-8.6,80.26-43.5,83.22-63.76-45.63,1.26-185.84-1.91-351-72.6l-.55-.25c-162.1-77.24-257.1-180.43-286.37-215.52-13.22,15.55-29.72,49.71,7.13,104.6Z"/></g></g></svg>