<svg xmlns="http://www.w3.org/2000/svg" viewBox="0 0 2823.33 2569.92"><defs><style>.cls-1{fill:#fff;}.cls-2{opacity:0.3;}.cls-3{fill:#000072;}.cls-4{fill:#1389ea;}.cls-5{opacity:0.35;}.cls-6{fill:#f91228;}.cls-7{opacity:0.15;}.cls-8{fill:#371a45;}.cls-9{opacity:0.4;}.cls-10{fill:#d25658;}.cls-11{opacity:0.25;}.cls-12{fill:#ff061e;}.cls-13{fill:#ffd400;}.cls-14{fill:#2d95ea;}.cls-15{fill:#4d1c54;}.cls-16{opacity:0.2;}.cls-17{fill:#22a7f0;}.cls-18{opacity:0.7;}.cls-19{fill:#46c1f7;}.cls-20{fill:#f9744b;}.cls-21{opacity:0.5;}.cls-22{fill:#fa508e;}.cls-23{fill:#0f2675;}.cls-24{fill:#f27e80;}</style></defs><g id="Layer_2" data-name="Layer 2"><g id="Layer_1-2" data-name="Layer 1"><path class="cls-1" d="M1939,1106.76s62.37,192.82,179.52,322.57c65.66,72.72,70.6,141.21,25.41,182.16s-138.18,66.76-218-4.79S1828,1228.81,1828,1228.81"/><path class="cls-1" d="M2145.08,1610.45c-.36.36-.72.68-1.12,1-45.21,41-138.19,66.77-218-4.8-61.57-55.18-86.38-249.94-94.5-336.2-2.44-25.65-3.36-41.69-3.36-41.69l111-122s62.33,192.81,179.48,322.56C2183.65,1501.46,2189.05,1569.4,2145.08,1610.45Z"/><g class="cls-2"><path class="cls-3" d="M2145.08,1610.45c-.36.36-.72.68-1.12,1-45.21,41-138.19,66.77-218-4.8-61.57-55.18-86.38-249.94-94.5-336.2l79.66-87.62s62.37,192.84,179.52,322.55C2124.12,1542.55,2141.8,1578.6,2145.08,1610.45Z"/></g><path class="cls-3" d="M2036.75,1664.32c-38.19,0-79.84-13.07-119.17-48.31-82.74-74.12-101.28-373.75-102-386.46a12.5,12.5,0,1,1,25-1.47c.18,3,18.64,302,93.75,369.31,76.23,68.32,162.15,40.31,201.3,4.84,41.47-37.58,31.39-100.62-26.3-164.52-117.59-130.24-179.56-319.13-182.14-327.11a12.5,12.5,0,1,1,23.79-7.69c.62,1.9,63,191.86,176.9,318,68,75.33,77.41,151.89,24.54,199.8C2126.86,1643.85,2084.52,1664.32,2036.75,1664.32Z"/><path class="cls-1" d="M1942,1453.86s248.62,127.61,181.09,393.69c-45.32,178.59-29.66,135.65-29.66,135.65l-494.22-129.45,128.31-489.92Z"/><path class="cls-3" d="M2091.36,2003.79a17.31,17.31,0,0,1-5.07-.78c-5.12-1.58-8.21-4.09-9.85-7.7L1595.1,1869.24a16,16,0,0,1-11.42-19.54L1712,1359.78a16,16,0,0,1,21.68-10.7l214.48,90c.38.16.75.33,1.11.52,2.66,1.36,65.73,34.18,120.91,101.12,51.36,62.31,104.92,166.8,68.38,310.75-20,78.88-27.48,112-30.23,126a16,16,0,0,1,.09,11.22C2103.88,2001.11,2096.71,2003.79,2091.36,2003.79Zm-472.67-161.46,460,120.47c.28-1.29.57-2.61.87-4,5.13-23.49,14.55-62.26,28-115.21,26.58-104.75,5.94-199.51-61.34-281.65-48.53-59.24-105.29-90.53-111.08-93.63l-196.83-82.61Z"/><path class="cls-1" d="M821.3,1421.82c-288.12,91.93-148.32,528.24,91.31,465.41,140.16-36.74,164.76-121.93,234.9-176.68a.69.69,0,0,1,.13-.11c70.08-54.59,152.93-27.31,152.93-27.31s73.42-90.52-42.42-96.61c-58-3.06-103.31,9.33-140.58,28.53-86.21,44.43-129.35,125.42-186.75,136.68-101.31,19.91-147.34-120.26-49.34-166.93,60.71-28.92,85.6-75.51,70.54-121.66C940.37,1427.49,901.72,1396.16,821.3,1421.82Z"/><g class="cls-2"><path class="cls-3" d="M1117.57,1615.05c-71.83,37-113.77,99.43-159,125.72a97.89,97.89,0,0,0,21.49-1.89c25.13-4.93,47.53-23.24,72-46,28.25-26.25,74.11-20.1,93.12,13.46q1.17,2.07,2.41,4.09c70.08-54.59,152.93-27.31,152.93-27.31s73.42-90.52-42.42-96.61a299.29,299.29,0,0,0-62.66,3l-5.18.88c-1.2.2-2.37.44-3.56.68-1,.16-1.93.36-2.88.56s-1.65.34-2.46.53-1.74.36-2.62.56c-1,.23-2.08.48-3.11.72A255.22,255.22,0,0,0,1117.57,1615.05Z"/></g><g class="cls-2"><path class="cls-3" d="M821.3,1421.82c-288.12,91.93-148.32,528.24,91.31,465.41q15-3.95,28.29-8.59c-222.82,32.54-345.88-367-83.76-465A202.88,202.88,0,0,0,821.3,1421.82Z"/></g><path class="cls-3" d="M866.09,1909.42c-103.1,0-181.57-85.67-209.94-183.35-34.35-118.29,1.15-268.73,160.27-319.49,89.44-28.56,136.54,7.94,150.8,51.59,18,55.26-12.16,109.31-78.85,141.07-42.49,20.24-51.34,60.07-41.26,90.56,9.59,29,38.23,54.54,80.63,46.24,25.19-5,49.56-28.06,77.79-54.81,55.22-52.35,124-117.52,253.46-110.69,40.57,2.13,66.21,14.62,76.2,37.1,16.25,36.54-18.21,80.67-22.19,85.58l-7,8.57-10.45-3.44c-1.21-.38-76.21-23.62-138.25,24.81-20.77,16.21-37.52,35.5-55.26,55.91-39.57,45.55-84.42,97.17-185.41,123.64A198.82,198.82,0,0,1,866.09,1909.42Zm9.16-481c-14.42,0-30.89,2.86-49.1,8.66-139.46,44.51-170.43,172.74-139.26,280.08,28.53,98.23,113.83,182.89,221.67,154.62,91.43-24,131-69.58,169.37-113.68,18-20.66,36.52-42,59.72-60.15,60.75-47.43,129.34-39,156.3-33,8.24-12.89,17.25-32.5,12-44.27-4.59-10.27-21.86-16.71-48.62-18.12-115.8-6.08-176.34,51.32-229.76,102-31.84,30.18-59.34,56.25-93.64,63-61.17,12-103.64-26.63-117.19-67.61-14-42.41-1.88-101,57.88-129.49,51.8-24.67,75-62.89,62.2-102.24C928.25,1442,906.62,1428.4,875.25,1428.4Z"/><path class="cls-4" d="M1173.61,2323l-76.81-8.9a95.1,95.1,0,0,1-77.42-59.31h0a570.9,570.9,0,0,1-32.63-305.06h0a95.07,95.07,0,0,1,63.12-74.34l73.2-25Z"/><g class="cls-2"><path class="cls-3" d="M1123.07,1850.45l-12.21,4.16,41.57,388.7-76.81-8.9a95.06,95.06,0,0,1-77.42-59.31c-3.28-8.24-6.29-16.57-9.17-24.93a569.81,569.81,0,0,0,30.35,104.63,95.1,95.1,0,0,0,77.42,59.31l76.81,8.9Z"/></g><g class="cls-5"><path class="cls-1" d="M1049.74,2279.35a571,571,0,0,1-32.63-305h0a95.12,95.12,0,0,1,63.12-74.35l46.44-15.82-3.6-33.68-73.2,25a95.07,95.07,0,0,0-63.12,74.34h0a570.9,570.9,0,0,0,32.63,305.06,95,95,0,0,0,45.07,49.47A95,95,0,0,1,1049.74,2279.35Z"/></g><path class="cls-6" d="M916.09,1685.84c40,19.12,228.43,107.47,236.2,220.34l180.15-102.68a162.53,162.53,0,0,0-4.43-16.84v0C1301.43,1704,1196,1594.56,922.84,1675.69c-2,.59-4.07,1.21-6.13,1.83A4.48,4.48,0,0,0,916.09,1685.84Z"/><g class="cls-7"><path class="cls-8" d="M916.09,1685.84c40,19.12,228.43,107.47,236.2,220.34l180.15-102.68a162.53,162.53,0,0,0-4.43-16.84l3.16,7.69c-14.33-5-37.05-9.71-57.9-5.5-76.63,15.5-117.4,17.91-159-18.47-52.13-45.61-146.12-90.12-191.45-94.69-2,.59-4.07,1.21-6.13,1.83A4.48,4.48,0,0,0,916.09,1685.84Z"/></g><g class="cls-9"><path class="cls-1" d="M929.74,1692.41c-9.93-5.08-5.73-2.78-13.66-6.57a4.49,4.49,0,0,1,.63-8.33c297-90.49,398.55,42.19,415.73,126l-19.51,11.12C1281.77,1738.66,1158.48,1637.44,929.74,1692.41Z"/></g><path class="cls-3" d="M1152.27,1922.19a16,16,0,0,1-16-14.91c-2.62-38-35.37-115.42-225.27-206.1l-1.88-.9a20.5,20.5,0,0,1,2.88-38.08c144-43.86,258.17-41.59,339.51,6.77,71.57,42.56,91.37,106,96.56,131.31a16,16,0,0,1-31.36,6.43c-4.33-21.14-21-74.2-81.56-110.23-67-39.83-165.21-43.8-285.26-11.83,173.18,88,214.69,167.9,218.32,220.43a16,16,0,0,1-14.87,17.07C1153,1922.17,1152.64,1922.19,1152.27,1922.19Z"/><path class="cls-10" d="M1389.32,2335.25c.93,85.53-69.79,241.43-379.17,215.81a4.49,4.49,0,0,1-2.38-8c35-27.14,200-158.4,183.72-270.36"/><path class="cls-6" d="M1010.16,2551.07a4.5,4.5,0,0,1-2.38-8c17.93-13.91,70-55.13,114.26-107.09,41.89-49.08,76.84-107.8,69.6-162.07,0-.39-.12-.8-.16-1.2l1.2.38,196.62,62.16c.26,24-5.11,53.57-19.87,83.1C1331.75,2494,1232.72,2569.48,1010.16,2551.07Z"/><g class="cls-11"><path class="cls-8" d="M1122,2436c41.89-49.08,76.84-107.8,69.6-162.07.35-.26.69-.56,1-.82l196.62,62.16c.26,24-5.11,53.57-19.87,83.1C1310.92,2445.45,1230.35,2457.17,1122,2436Z"/></g><path class="cls-3" d="M1076.21,2569.92q-32.28,0-67.38-2.91A20.49,20.49,0,0,1,998,2530.4c45.29-35.1,192-157.24,177.68-255.41a16,16,0,0,1,31.68-4.6c14.5,99.78-97.55,209.53-166.45,266.63,122.42,5.64,216.83-19.18,274.12-72.49,54.86-51.05,58.5-111.73,58.31-129.11a16,16,0,0,1,32-.35c.29,26.53-5.81,94.53-68.51,152.89C1278.26,2542.45,1190.78,2569.91,1076.21,2569.92Z"/><path class="cls-1" d="M2821.88,1907.7s-186.08,410.69-815.45,522.18c-536.11,95-832.79-106.89-832.79-106.89a684,684,0,0,1-50.6-472.54s61.31-64.41,190-131.65a1209.81,1209.81,0,0,1,183.57-77c112.33-36.87,251.16-65.61,417.8-72,9.4-.34,18.76-.63,28-.77,39.48-.86,77.54-.19,114.15,1.79C2593.21,1599.77,2821.88,1907.7,2821.88,1907.7Z"/><g class="cls-2"><path class="cls-3" d="M1846.73,2289.58a223.73,223.73,0,0,1-223.18-120.83c-46.24-4.41-81.51-15.56-118.2-52.55-21.49-21.67-58.59-73.27-76-191.82-18.64-126.76-113.1-160.37-165.89-219.24,52.47-27.57,105.36-50.12,183.8-76.92,88.88-30.35,195-53.49,317.94-65.56-28.34,36.53-51.68,72.74-53.56,74.22l-.71.62c73.42,75.62,58.13,159.5,31.29,220.93a223.75,223.75,0,0,1,56.91-13.73c122.85-13.16,233.1,75.77,246.27,198.65S1969.57,2276.45,1846.73,2289.58Z"/></g><g class="cls-2"><path class="cls-3" d="M1113.44,2114.9A683.26,683.26,0,0,0,1173.15,2293s296.73,201.81,832.84,106.84c226.85-40.19,396.08-119.2,519.78-203.86-45.25-92.75-115.73-509-167.48-502.49-38.5,4.86,36.7,210.1-16.12,424.19-25,101.1-116,193.3-199,211.73-303.92,67.52-538.92,30.48-678.21-16.08-111.91-37.41-195.9-132.17-218-248.08-.11-.61-.23-1.23-.35-1.84a684.39,684.39,0,0,1,9.17-294.47s20.91-22,63.89-53.64c-133.21,68.49-196.61,135.11-196.61,135.11A683.88,683.88,0,0,0,1102.16,2013,682.66,682.66,0,0,0,1113.44,2114.9Z"/></g><path class="cls-6" d="M2403.15,2299.24a1650.22,1650.22,0,0,0-73.34-685.64c249.4,67.15,396.69,192.72,458.2,255.84a67.31,67.31,0,0,1,8.93,82.76C2750.22,2026.85,2632.82,2180.8,2403.15,2299.24Z"/><g class="cls-5"><path class="cls-1" d="M2788,1869.44c-61.51-63.12-208.8-188.69-458.2-255.84q7.05,21.51,13.5,43.16c232.46,68.7,371.05,187.18,430.22,247.9a67.35,67.35,0,0,1,18.67,55c1.65-2.56,3.24-5.05,4.74-7.45A67.31,67.31,0,0,0,2788,1869.44Z"/></g><g class="cls-2"><path class="cls-3" d="M2406.55,2262.13C2637,2139.44,2750.71,1982,2792.25,1913l.18-.22c-45.69,53.13-110.49,114.58-190.93,172.94-48.26,35-116.16,4.53-123.08-54.69-16.78-143.49-62.3-258.68-130-412.24-6.12-1.79-12.34-3.52-18.59-5.19A1649.23,1649.23,0,0,1,2406.55,2262.13Z"/></g><path class="cls-3" d="M2403.15,2315.24a16,16,0,0,1-15.92-17.66c24-230.4-.39-458.85-72.63-679a16,16,0,0,1,19.37-20.44c250.35,67.41,399.29,192.09,465.79,260.42a82.81,82.81,0,0,1,10.89,101.89c-50.55,80.83-169.75,234.18-400.17,353A16,16,0,0,1,2403.15,2315.24Zm-49.07-678.15a1653.79,1653.79,0,0,1,67.83,634.06c206.55-113.09,314.73-252.7,361.6-327.66a50.88,50.88,0,0,0-6.69-62.6C2715.16,1817.54,2579.9,1703.94,2354.08,1637.09Z"/><path class="cls-3" d="M1727.49,2471.07c-144.62,0-260.38-21.08-342.74-43.59-142.13-38.85-217-89.13-220.16-91.26a15.93,15.93,0,0,1-5.33-6.1,700,700,0,0,1-51.73-483.61,16.08,16.08,0,0,1,3.92-7.09c2.6-2.74,65.18-67.72,195.88-135.73,119.92-62.41,322.48-139.06,606.47-149.79,148.9-5.66,290.25,9.25,420.17,44.25a16,16,0,0,1,11,10.46c73.63,224.39,98.55,457.23,74.08,692.07a16,16,0,0,1-8.6,12.82c-119.59,61.69-254.61,106.15-401.31,132.13C1906.07,2463.9,1811.87,2471.07,1727.49,2471.07ZM1186,2311.93c16,10,87.8,52.24,208.86,85.12,127,34.49,335.64,65.43,608.76,17.07,140.37-24.87,269.69-66.95,384.5-125.12,22.27-224.62-1.54-447.29-70.81-662.17-124.52-32.56-259.82-46.33-402.28-40.95-277.17,10.48-474.58,84.86-591.38,145.41C1212.26,1789,1151,1845.5,1137.5,1858.64A667.79,667.79,0,0,0,1186,2311.93Z"/><path class="cls-3" d="M1173.63,2339a16.82,16.82,0,0,1-1.86-.1L1095,2330a111,111,0,0,1-90.44-69.3A586.87,586.87,0,0,1,971,1947.11a111,111,0,0,1,73.74-86.86l73.21-24.94a16,16,0,1,1,10.32,30.29l-73.2,24.94a79,79,0,0,0-52.5,61.84,554.87,554.87,0,0,0,31.72,296.5,79,79,0,0,0,64.39,49.33l76.81,8.9a16,16,0,0,1-1.82,31.9Z"/><path class="cls-12" d="M16,2207.86c346.66-37.08,478,186.61,697.84,163.09s240.2-263.43,240.2-263.43-70.65-230.18-290.48-206.66S362.67,2170.78,16,2207.86Z"/><path class="cls-12" d="M16,2207.86c346.66-37.08,478,186.61,697.84,163.09s240.2-263.43,240.2-263.43-70.65-230.18-290.48-206.66S362.67,2170.78,16,2207.86Z"/><g class="cls-9"><path class="cls-1" d="M173.78,2208.85C410,2132.61,496.6,1950.61,684,1930.56c116.34-12.45,190.89,46.17,235.31,104.11-40.26-65.19-119.23-148.42-255.75-133.81-219.84,23.51-300.9,269.92-647.56,307C74.19,2201.64,126.29,2202.78,173.78,2208.85Z"/></g><path class="cls-13" d="M364.77,2169.34c201.82-21.59,281.58,139.42,409.56,125.73s136.55-184.14,136.55-184.14-44.42-164.79-172.41-151.1S566.59,2147.75,364.77,2169.34Z"/><path class="cls-3" d="M681.65,2388.68c-87.14,0-162.29-35.82-241.35-73.5-109.73-52.3-234.09-111.57-422.59-91.41A16,16,0,0,1,.09,2209.56a16.32,16.32,0,0,1-.09-1.71A16,16,0,0,1,14.3,2192c188.49-20.16,297.51-104.4,393.7-178.73,78.12-60.35,151.91-117.37,253.87-128.27,95.5-10.21,179.06,24.44,241.71,100.22,46.64,56.42,65,115.19,65.77,117.66a16.07,16.07,0,0,1,.65,6.05c-.22,2.57-5.75,63.9-39.4,128.9C885.4,2325.1,811,2376.65,715.55,2386.86A318.82,318.82,0,0,1,681.65,2388.68ZM166.44,2191.77c116.88,13.14,206.15,55.69,287.63,94.52,88.61,42.22,165.14,78.71,258.08,68.75,85.14-9.11,148.92-53.21,189.55-131.07,26.91-51.55,34.49-101.9,36.06-114.7-4.23-12.17-22.29-59.78-59.5-104.49-56.18-67.51-127.84-97.13-213-88-93,9.94-160,61.77-237.7,121.78C356.15,2093.74,277.9,2154.2,166.44,2191.77Z"/><path class="cls-6" d="M1182.34,2173.69c-105.89,11.29-219.11-61.37-219.11-61.37s.36-.37,1-1c10.57-10.23,100.68-94.67,200.1-105.35,95.41-10.22,179.45,50.58,194.26,62,1.52,1.18,2.3,1.83,2.3,1.83S1287.5,2162.49,1182.34,2173.69Z"/><g class="cls-9"><path class="cls-1" d="M963.24,2112.32s4.81,3.1,13.37,7.88c43.42-33.31,114.44-78.25,190.1-86.38,74.83-8,143.61,21.58,185.73,45.7,5.55-6,8.49-9.74,8.49-9.74s-.78-.65-2.29-1.82c-14.81-11.41-98.86-72.22-194.27-62-99.41,10.7-189.54,95.13-200.11,105.35C963.61,2112,963.24,2112.32,963.24,2112.32Z"/></g><g class="cls-11"><path class="cls-8" d="M1182.34,2173.69c-105.89,11.29-219.11-61.37-219.11-61.37s.36-.37,1-1L1358.63,2068c1.52,1.18,2.3,1.83,2.3,1.83S1287.5,2162.49,1182.34,2173.69Z"/></g><path class="cls-3" d="M1159.24,2190.9c-102,0-200.2-62.25-204.66-65.11a16,16,0,0,1-2.65-24.8c4.05-4,100.55-99.09,210.75-110.91,110.59-11.81,204.46,64.1,208.4,67.34a16,16,0,0,1,2.39,22.3c-3.17,4-78.86,98.1-189.45,109.89A233.7,233.7,0,0,1,1159.24,2190.9Zm-169-81.47c35.31,19,115.66,56.31,190.35,48.36s133.15-60.88,156.59-85.45c-28.16-19-96.64-58.45-171.13-50.43C1091.41,2029.92,1020.77,2083.36,990.28,2109.43Z"/><circle class="cls-6" cx="1847.15" cy="2013.72" r="197.05" transform="translate(-882.9 1895.93) rotate(-45)"/><g class="cls-2"><path class="cls-3" d="M1868.09,2209.64c-108.18,11.56-205.32-66.73-216.89-174.95a196.19,196.19,0,0,1,13.93-96.49,198.5,198.5,0,0,0-.25,44.42c11.57,108.23,108.67,186.57,216.9,175a196.93,196.93,0,0,0,161-120.49A197.09,197.09,0,0,1,1868.09,2209.64Z"/></g><path class="cls-3" d="M1846.74,2226.8a213.49,213.49,0,1,1,23.06-1.23A218.09,218.09,0,0,1,1846.74,2226.8Zm.75-394.15a182.09,182.09,0,0,0-19.6,1,181,181,0,0,0,38.51,360h0a181.06,181.06,0,0,0-18.91-361.09Z"/><circle class="cls-14" cx="1849.23" cy="2011.14" r="125.36" transform="translate(-880.46 1896.65) rotate(-45)"/><g class="cls-2"><path class="cls-1" d="M1862.55,2135.8a125.35,125.35,0,0,1-138-111.33,123.92,123.92,0,0,1,2.9-43.26c.09,1.38.22,2.76.36,4.19A125.38,125.38,0,0,0,1974.25,2002,125.37,125.37,0,0,1,1862.55,2135.8Z"/></g><g class="cls-5"><path class="cls-8" d="M1969.65,2051.13c-.15-2.14-.3-4.29-.54-6.46a125.36,125.36,0,0,0-244.81-22.42,125.37,125.37,0,1,1,245.35,28.88Z"/></g><path class="cls-3" d="M1849,2152.52a141.38,141.38,0,0,1-14.76-282c77.53-8.28,147.31,48,155.6,125.53s-48,147.31-125.53,155.6h0A143.65,143.65,0,0,1,1849,2152.52Zm.36-250.75a110.22,110.22,0,0,0-11.71.63,109.36,109.36,0,1,0,23.26,217.47h0a109.36,109.36,0,0,0-11.55-218.1Z"/><path class="cls-15" d="M1864.12,1548.43c.1-.68.18-1.36.23-2a1.72,1.72,0,0,1,0,.31C1864.28,1547.27,1864.22,1547.86,1864.12,1548.43Z"/><g class="cls-2"><path class="cls-3" d="M703.41,2341.1c206.77-22.11,237.07-235.65,239.94-261-10.75-24.16-30.16-60.73-60.66-94.69L875.3,1988s112.32,369.64-531.6,240.68C474.49,2282.58,573.5,2355,703.41,2341.1Z"/></g><path class="cls-1" d="M1234.14,1571.92s-201.84,3.69-231.25-66c-43.22-102.37,10.44-427,71.38-503.15,59.19-74,286.87-45.76,286.87-45.76Z"/><g class="cls-2"><path class="cls-3" d="M1002.9,1506c29.41,69.64,231.25,66,231.25,66l19-134.09s-201.84,3.68-231.25-66c-16.4-38.87-19.16-110.1-12.78-187.56C985.11,1303.86,977.1,1444.85,1002.9,1506Z"/></g><path class="cls-3" d="M1225.78,1588c-43.61,0-207.65-4.79-237.63-75.8-46.34-109.76,9.27-439,73.62-519.38,63-78.66,277.12-54.65,301.33-51.64l17.22,2.13-133.1,644.38-12.79.23C1232.64,1588,1229.69,1588,1225.78,1588Zm8.36-16.08h0ZM1267,967.73c-70,0-151.5,9.24-180.19,45.09-57.26,71.53-110.34,389.32-69.13,486.93,17.33,41,128.89,55.86,203.44,56.25l120.81-584.9C1321.6,969.23,1295.21,967.73,1267,967.73Z"/><path class="cls-1" d="M1138.75,1284.09l-87.47-14.35a31.5,31.5,0,0,0-36.09,25.24c-8.21,43.91-17.41,122.18,16.89,139.12,48.28,23.84,98.51,16.08,111.5,3.07,19.2-19.22,21.77-84.8,21.6-122.18A31.5,31.5,0,0,0,1138.75,1284.09Z"/><g class="cls-2"><path class="cls-3" d="M1032.09,1434.1c48.29,23.84,98.49,16.09,111.5,3.06,12.28-12.3,17.76-43.57,20.07-74.31a36.07,36.07,0,0,1-6.29,9c-13,13-63.21,20.75-111.49-3.09-23.08-11.39-26.46-50.57-23.71-88.35a31.23,31.23,0,0,0-7,14.61C1007,1338.89,997.78,1417.17,1032.09,1434.1Z"/></g><path class="cls-3" d="M1097.81,1464.66a166,166,0,0,1-72.37-17.11c-32.82-16.2-41.23-68.46-25-155.33a46.76,46.76,0,0,1,53.26-37.28l87.48,14.35a46.36,46.36,0,0,1,39,45.63c.32,70.56-8.42,115.26-26,132.85C1143.66,1458.31,1122.71,1464.66,1097.81,1464.66Zm-51.62-180.33a16.59,16.59,0,0,0-16.26,13.4c-12.32,66-8.87,114.2,8.79,122.92,44,21.74,87.27,12.92,94.24,5.92,8.53-8.54,17.54-42.32,17.22-111.51a16.45,16.45,0,0,0-13.86-16.16l-87.47-14.36A17.22,17.22,0,0,0,1046.19,1284.33Z"/><path class="cls-3" d="M1118.75,994.11a179.78,179.78,0,0,1,42.16-12.31,280.87,280.87,0,0,1,43.82-3.55c14.55-.19,29,.46,42.79.43a136.63,136.63,0,0,0,19.38-1.19c5.86-.81,10.52-2.79,12-4.51a16.36,16.36,0,1,1,21,24.6l-2.55,1.56c-10.37,6.35-20.22,7.09-28.42,7.26a163.26,163.26,0,0,1-23.2-1.83c-14.57-2.06-28.33-4.68-42.15-6.46a264.18,264.18,0,0,0-41.31-2.54,169.05,169.05,0,0,0-40.89,5.86h-.05a3.89,3.89,0,0,1-2.58-7.33Z"/><path class="cls-1" d="M1957.49,1503.06a140.89,140.89,0,0,1-21.2,35.89,71.73,71.73,0,0,1-8.16,8.56c-8.68,7.81-19.17,13.89-30.21,18.69-23.37,10.2-49.29,14.84-66.5,18.92-45.53,10.89-63.85,24.33-66.69,26.61a3.49,3.49,0,0,0-.4.32c102.58,108.82,24.68,231.77-8,282.83,0,0,83.46,106.5,25.08,196-52.09,79.86-182.2,47-223.09-16-32.25-49.77-55.89-95.58-63.53-182.72-11.81-133.6-155.2-140-222.22-211.61-44.37-47.46-67.41-114.11-71.85-195.65-2-36-.28-74.9,4.72-116.31,17-139.19,72-306.87,156.27-488.79,0,0,605.27,83.06,589.78,144.31C1904.16,1211.19,2004.87,1386.84,1957.49,1503.06Z"/><g class="cls-2"><path class="cls-3" d="M1957.49,1503.06a140.89,140.89,0,0,1-21.2,35.89,71.73,71.73,0,0,1-8.16,8.56,55.4,55.4,0,0,0,12.92-36.4l0-3.29A61.92,61.92,0,0,0,1957.49,1503.06Z"/></g><g class="cls-2"><path class="cls-3" d="M1941.05,1511.11a55.4,55.4,0,0,1-12.92,36.4c-8.68,7.81-19.17,13.89-30.21,18.69-23.37,10.2-49.29,14.84-66.5,18.92-45.53,10.89-63.85,24.33-66.69,26.61-41.29-24.57-97.26-48.65-145-36.77,0,0,.92-1.32,2.77-3.64a56,56,0,0,1-51.7-54.77l0-1.4c-74.27,20.36-129.24,21.55-198.12,13.61-32.37-3.74-63.47,16.9-70.47,48.73-2.87,13-1.07,26.16,9.77,37.76,67,71.66,210.41,78,222.17,211.61,7.69,87.14,31.29,133,63.58,182.68,38.85,60,164.08,100,203.53-6.12,3.08,28.17-1,58.66-19.81,87.42-52.09,79.86-182.2,47-223.09-16-32.25-49.77-55.89-95.58-63.53-182.72-11.81-133.6-155.2-140-222.22-211.61-44.37-47.46-67.41-114.11-71.85-195.65-.08-1.64-.16-3.28-.24-5-.12-2.48-.2-5-.28-7.56-.12-2.88-.16-5.81-.2-8.77s-.08-5.84-.08-8.8c0-3.72,0-7.44.12-11.24q.06-4.62.24-9.36c0-.44,0-.92,0-1.36.12-3.12.24-6.24.4-9.37s.32-6.44.56-9.72c.2-3.64.48-7.32.76-11,.2-2.52.4-5,.64-7.56v-.2c.2-2.24.4-4.48.64-6.72.6-6.49,1.32-13,2.12-19.65a237,237,0,0,0,34,14.33c115.46,39.36,316,33.32,329.91,32.84l-.56-36.93a56,56,0,0,1,43.81-55.25,56.73,56.73,0,0,1,11.13-1.28l258.78-3.84a55.9,55.9,0,0,1,56.57,54.93l1.64,109.11.36,25.36Z"/></g><g class="cls-2"><path class="cls-3" d="M1928.13,1547.51a55.62,55.62,0,0,1-30.21,18.69C1909,1561.4,1919.45,1555.32,1928.13,1547.51Z"/></g><g class="cls-2"><path class="cls-3" d="M1371.24,881.12c-82.7,191.64-130.44,364.8-131.87,501.76a237,237,0,0,1-34-14.33c17-139.19,72-306.87,156.27-488.79C1361.67,879.76,1365,880.2,1371.24,881.12Z"/></g><path class="cls-3" d="M1687.24,2154H1687c-56.87-.08-115.33-29-142.15-70.42-30.08-46.4-57.76-95.85-66-190-6.89-78.21-64-108-124.35-139.44-33.6-17.51-68.33-35.62-93.61-62.65-126.17-134.92-95.52-425.57,86.32-818.4a16,16,0,0,1,16.7-9.13c1.37.19,138.8,19.12,279.4,45.16,290.32,53.76,311.44,85.06,319.39,96.85,5.95,8.82,5.63,16.86,4.32,22.05-23.78,94.09-8.52,187.22,4.94,269.38,16.31,99.6,30.4,185.61-23.17,251.67-26,32.08-72.5,42.45-103.26,49.31-3.7.83-7.17,1.6-10.34,2.36-21.6,5.15-36.49,10.87-46.09,15.38,86.23,107.93,20.33,224.79-13.44,278.26,19.92,29.49,73.25,122.38,19.19,205.24C1771.91,2134.65,1733.72,2154,1687.24,2154Zm-316-1256.67c-171.66,374.69-202.61,648.72-87,772.31,21.54,23,52.38,39.11,85,56.12,62.34,32.5,133,69.34,141.43,165,7.66,86.94,32.17,130.87,61,175.39,20.92,32.28,69.43,55.76,115.34,55.83h.2c25,0,59.26-6.94,80.74-39.86,51.51-79-23.53-176.38-24.29-177.35a16,16,0,0,1-.88-18.52c31.26-48.74,104.46-162.86,9.88-263.2a16,16,0,0,1,1.12-23c2.07-1.8,21.69-18,73.89-30.42,3.31-.79,6.94-1.6,10.8-2.46,26.43-5.89,66.36-14.8,85.37-38.23,44.52-54.91,31.51-134.35,16.44-226.34-13.84-84.51-29.52-180.21-5-279.83-6.4-7.56-46.37-35.41-294.86-81.6C1523.26,919.33,1407.65,902.45,1371.24,897.28Z"/><path class="cls-1" d="M1398.52,1064.53s-161.37-49.65-211.72-88.77c-33.46-26-56.18-49.55-81.66-99.11-35.39-68.82-78.93-128.72-135.35-120-24.64,3.81-31.65,27-31.65,27s-22.64-2.32-39.51,10.25c-18.8,14-19.75,41.31-19.75,41.31s-24.94,10.12-30.59,44.53c-14.59,88.86,37.41,224.14,149,320.13,95.16,81.85,247,111.57,247,111.57"/><g class="cls-2"><path class="cls-3" d="M1244.29,1311.46h0s-151.84-29.73-247-111.55c-111.59-96-163.6-231.29-149-320.15,5.68-34.41,30.61-44.53,30.61-44.53s1-27.29,19.76-41.29c16.85-12.57,39.49-10.25,39.49-10.25s7-23.2,31.65-27a70,70,0,0,1,27.89,1.24,23.1,23.1,0,0,0-1.12,2.88s-22.65-2.32-39.49,10.28c-18.81,14-19.77,41.29-19.77,41.29s-24.92,10.12-30.6,44.53c-14.57,88.86,37.45,224.13,149,320.12,52.1,44.83,121.17,74,173,91.23A29.21,29.21,0,0,1,1244.29,1311.46Z"/></g><path class="cls-3" d="M1244.29,1327.47a16.31,16.31,0,0,1-3.09-.29c-6.37-1.25-157.08-31.5-254.34-115.15C866.44,1108.45,818.05,965.18,832.5,877.18c4.76-29,21-44.56,31.42-51.7,2-11.69,7.9-31.53,25.14-44.38,13.28-9.89,28.59-12.74,38.94-13.43,6.77-11.24,19.37-23.71,39.34-26.81,71.37-11.07,120.95,68,152,128.47,24.31,47.29,45.9,69.45,77.24,93.79,47.47,36.87,205,85.63,206.61,86.12a16,16,0,0,1-9.41,30.59c-6.7-2.06-164.76-51-216.83-91.43-34.15-26.52-59.18-52.11-86.08-104.43-42.19-82.07-79.88-117.5-118.66-111.48-13.83,2.15-18.37,14.61-18.85,16a16.24,16.24,0,0,1-16.88,11.08c-.07,0-16.83-1.39-28.32,7.17-10.16,7.57-13.06,23.59-13.31,29.12a16.15,16.15,0,0,1-10,14.18c-.44.21-16.8,7.8-20.82,32.29-13,79.19,32.17,209.52,143.65,305.4,90.75,78,238.15,107.71,239.63,108a16,16,0,0,1-3.07,31.7Z"/><path class="cls-15" d="M1788.89,1555.07q.16-1,.27-2a1.16,1.16,0,0,1,0,.31C1789.07,1553.91,1789,1554.5,1788.89,1555.07Z"/><path class="cls-1" d="M1895.52,1530.94c-24.35,1.31-51.64,2.32-80.94,2.72,17.46,1,33.55,1.74,47.91,2.26A91.45,91.45,0,0,0,1895.52,1530.94Z"/><circle class="cls-1" cx="1962.58" cy="1400.56" r="48.97" transform="translate(-431.87 1117.88) rotate(-28.78)"/><g class="cls-16"><path class="cls-3" d="M2011.48,1402.74a49,49,0,1,1-92.2-25.07,49,49,0,0,0,88.43,3.95A48.3,48.3,0,0,1,2011.48,1402.74Z"/></g><path class="cls-3" d="M1962.61,1462c-.92,0-1.85,0-2.78-.06a61.47,61.47,0,1,1,64.15-58.66h0A61.54,61.54,0,0,1,1962.61,1462Zm0-97.93a36.34,36.34,0,1,0,1.64,0Zm48.93,38.65h0Z"/><path class="cls-1" d="M1906.16,1519.64l-258.84,3.81a55.89,55.89,0,0,1-56.55-54.91l-2-137.74a55.94,55.94,0,0,1,43.79-55.26,54.2,54.2,0,0,1,11.12-1.29l258.8-3.82a55.85,55.85,0,0,1,56.55,54.91l1.63,109.1.43,28.64A55.9,55.9,0,0,1,1906.16,1519.64Z"/><g class="cls-2"><path class="cls-3" d="M1906.16,1519.64l-258.84,3.81a55.89,55.89,0,0,1-56.55-54.91l-2-137.74a55.94,55.94,0,0,1,43.79-55.26c14.84,9.55,24.27,15.65,24.27,15.65,14.23,110.38,46.53,165,183.85,165.27,59.28.07,96.56-9.52,120-22l.43,28.64A55.9,55.9,0,0,1,1906.16,1519.64Z"/></g><path class="cls-3" d="M1646.5,1533.47a65.91,65.91,0,0,1-65.72-64.76l-2-137.76a65.82,65.82,0,0,1,64.76-66.71l258.81-3.82h1a65.82,65.82,0,0,1,65.72,64.77l2,137.76a65.89,65.89,0,0,1-64.76,66.7l-258.81,3.83h-1Zm256.81-253.06h-.69l-258.82,3.82a45.78,45.78,0,0,0-45,46.41l2,137.76a45.91,45.91,0,0,0,46.41,45.06h0l258.82-3.83a45.88,45.88,0,0,0,45-46.41l-2-137.76A45.8,45.8,0,0,0,1903.31,1280.41Z"/><path class="cls-1" d="M1916.53,1518.46a49.7,49.7,0,0,1-10.37,1.18l-258.84,3.81a55.83,55.83,0,0,1-51.19-32,54.81,54.81,0,0,1-5.32-22.91l-.93-61.19-.3-20.19-.83-56.36a55.9,55.9,0,0,1,54.91-56.55l55.93-.81a55.89,55.89,0,0,0-44.62,55.37l1.08,74.41.94,63.37a55.93,55.93,0,0,0,56.56,54.92Z"/><g class="cls-2"><path class="cls-3" d="M1916.53,1518.46a49.7,49.7,0,0,1-10.37,1.18l-258.84,3.81a55.83,55.83,0,0,1-56.51-54.91l-1.23-81.38c6.72,14.28,18.67,31.76,37.42,33.34,10.28.89,20.28-6.65,29-17.28l.94,63.37a55.93,55.93,0,0,0,56.56,54.92Z"/></g><path class="cls-3" d="M1646.45,1533.47a65.88,65.88,0,0,1-65.66-64.77l-2-137.75a65.82,65.82,0,0,1,64.75-66.72l55.92-.81h.15a10,10,0,0,1,2,19.79,45.8,45.8,0,0,0-36.61,45.48l2,137.75a45.87,45.87,0,0,0,46.37,45.06l203-3a10,10,0,0,1,2.25,19.78,62.07,62.07,0,0,1-12.41,1.37l-258.77,3.84ZM1662,1284l-18.14.26a45.8,45.8,0,0,0-45,46.42l2,137.76h0a45.88,45.88,0,0,0,46.38,45.06l20.11-.3-.29-.28a65.23,65.23,0,0,1-20-46.16L1645,1329A65.59,65.59,0,0,1,1662,1284Z"/><path class="cls-17" d="M1758.06,1397.32c0,5.09-6.75,46.28-6.75,46.28l-29,.26c-20,.18-36.37-20.37-36.6-45.89s15.78-46.36,35.77-46.54l29-.27S1758,1389,1758.06,1397.32Z"/><g class="cls-16"><path class="cls-3" d="M1758.06,1397.32c0,5.09-6.75,46.28-6.75,46.28l-29,.26c-20,.18-36.37-20.37-36.6-45.89s15.78-46.36,35.77-46.54l29-.27S1758,1389,1758.06,1397.32Z"/></g><path class="cls-3" d="M1722,1451.36c-11.89,0-23-5.72-31.3-16.13-8-10-12.4-23.18-12.53-37.19s4.08-27.3,11.85-37.42c8.19-10.66,19.33-16.59,31.35-16.7l20.26-.18a18.06,18.06,0,0,1,17.86,14.66c4,20.93,6,34,6,38.85,0,1.18,0,4.81-5.42,38.79a18,18,0,0,1-17.63,15.14l-20.15.18Zm19.8-92.62h0l-20.27.18c-7.31.07-14.26,3.92-19.58,10.84-5.74,7.47-8.85,17.47-8.75,28.14s3.38,20.61,9.25,28c5.45,6.82,12.43,10.37,19.78,10.48l20.16-.18a3,3,0,0,0,2.95-2.52c3.83-23.83,5.21-34.44,5.23-36.29,0-3.75-2.2-17.27-5.78-36.17A3,3,0,0,0,1741.82,1358.74Z"/><ellipse class="cls-17" cx="1750.9" cy="1397.38" rx="36.19" ry="46.22" transform="translate(-12.54 15.86) rotate(-0.52)"/><g class="cls-18"><path class="cls-1" d="M1787.08,1397a54.54,54.54,0,0,1-.73,9.74c-3.45-21.25-18.25-37.16-35.87-37-17.37.17-31.71,15.91-35,36.74a60.36,60.36,0,0,1-.73-8.79c-.25-25.54,15.77-46.37,35.76-46.55S1786.84,1371.54,1787.08,1397Z"/></g><g class="cls-16"><path class="cls-3" d="M1787.08,1397c.21,25.54-15.77,46.38-35.76,46.55s-36.39-20.34-36.6-45.88a57.4,57.4,0,0,1,1.85-15.15c4.81,18.57,18.6,31.93,34.75,31.79,15.84-.14,29.17-13.26,33.92-31.4A57.53,57.53,0,0,1,1787.08,1397Z"/></g><path class="cls-3" d="M1751.05,1451.1c-23.94,0-43.57-23.84-43.84-53.32s19.11-53.89,43.2-54.11c12,0,23.26,5.62,31.64,16.12,8,10,12.4,23.18,12.53,37.2h0c.27,29.62-19.11,53.89-43.2,54.11Zm-.31-92.43h-.19c-15.82.14-28.53,17.62-28.34,39s13.11,38.46,28.84,38.46h.2c15.81-.14,28.52-17.63,28.33-39h0c-.1-10.68-3.38-20.61-9.26-28C1764.93,1362.38,1758,1358.67,1750.74,1358.67Z"/><path class="cls-3" d="M1825.68,1529.83h-.09a10,10,0,0,1-9.91-10.09l.62-69.7a58,58,0,0,1,26.48-48.25,38,38,0,0,0,17.36-32.43l-1.11-98.25a10,10,0,0,1,9.89-10.11,10.18,10.18,0,0,1,10.11,9.89l1.11,98.24a57.86,57.86,0,0,1-26.47,49.43,38.07,38.07,0,0,0-17.37,31.66l-.62,69.7A10,10,0,0,1,1825.68,1529.83Z"/><path class="cls-1" d="M1220.26,1318.43s-34.56,8.48-39.29,52.8c-4,37.7,27.8,60.21,27.8,60.21s158.75,89.67,380.72,35.71c0,0,51.84-60.37-.74-99.48C1588.75,1367.67,1325.41,1377.67,1220.26,1318.43Z"/><g class="cls-2"><path class="cls-3" d="M1589.48,1467.16c-222,54-380.73-35.73-380.73-35.73s-31.8-22.49-27.76-60.22a73.25,73.25,0,0,1,4.6-19.32,76.16,76.16,0,0,0,23.16,29.73s158.76,89.66,380.73,35.68a114.84,114.84,0,0,0,17.29-29.24C1625.85,1424.79,1589.48,1467.16,1589.48,1467.16Z"/></g><path class="cls-3" d="M1445.84,1497.09c-144.11,0-238.13-51.9-243.22-54.77-.37-.21-.73-.44-1.07-.68-1.55-1.09-37.76-27.26-33-71.74,5.6-52.44,47-63.18,48.74-63.61a12.5,12.5,0,0,1,9.12,1.25c100.85,56.82,359.28,47.74,361.88,47.64a12.48,12.48,0,0,1,7.93,2.46c16.68,12.4,26.16,28,28.2,46.27,4.07,36.55-24.23,70-25.44,71.38a12.52,12.52,0,0,1-6.52,4A619.69,619.69,0,0,1,1445.84,1497.09Zm-230.31-76.21c10.83,5.81,161.6,83.48,366.81,35.12,5.67-7.66,19.56-28.8,17.21-49.41-1.14-10.07-6-18.7-15-26.27-36.38,1.06-262.21,5.46-365.3-48.21-7.54,3.54-23,13.93-25.88,40.44C1190.44,1400.27,1211.81,1418,1215.53,1420.88Z"/><path class="cls-3" d="M1618.26,1567.08a204.46,204.46,0,0,1,40.22-3.81,216.29,216.29,0,0,1,40.23,3.83c6.72,1.12,13.29,3,19.92,4.78,3.28,1,6.51,2.21,9.78,3.32l4.89,1.72,4.76,2.08c12.92,5.13,24.83,12.65,36.4,20.66a16,16,0,0,1-18.25,26.38c-.43-.3-.84-.62-1.23-.94l-.78-.67c-8.76-7.43-17.88-14.8-28.33-20.22L1722,1602l-4-1.89c-2.69-1.23-5.34-2.56-8.07-3.73-5.56-2.09-11.09-4.38-16.9-6a193.5,193.5,0,0,0-35.6-7.19,190.54,190.54,0,0,0-36.33-.43l-.57,0a8,8,0,0,1-2.31-15.79Z"/><path class="cls-3" d="M2000.38,1153.74c-5.44,3-10.92,5.8-16.44,8.6-29,8.41-174.68,45.73-369.37,10.61-193.12-42.93-313-133.72-336.52-152.68q-6.06-7.08-11.88-14.4c5.56-18.25,15.64-29.13,15.64-29.13s1.45,1.28,4.25,3.52c23.52,19,143.39,109.75,336.52,152.68,194.68,35.12,340.36-2.2,369.36-10.61,3.48-1,5.24-1.6,5.24-1.6S2002.3,1134.7,2000.38,1153.74Z"/><path class="cls-19" d="M2302.44,715.6c-36.85,183.1-155.65,328.87-310.52,406.73-29,8.4-174.66,45.72-369.33,10.61-193.14-42.94-313-133.7-336.52-152.67-112.69-131.71-165.84-312.08-129-495.19C1220.73,168.79,1528.74-36,1845,27.68S2366.1,399.31,2302.44,715.6Z"/><g class="cls-9"><path class="cls-1" d="M1182.08,515.08C1245.73,198.79,1553.74-6,1870,57.68a581.55,581.55,0,0,1,320.45,183.54A581.85,581.85,0,0,0,1845,27.68c-316.29-63.66-624.3,141.11-687.95,457.4-36.85,183.11,16.3,363.48,129,495.19.76.62,1.63,1.31,2.59,2.07C1191.51,853.66,1147.77,685.57,1182.08,515.08Z"/></g><g class="cls-2"><path class="cls-3" d="M2272.45,730.62C2320.27,493,2216.54,260.23,2028,132.06a581.77,581.77,0,0,1,34.18,341.8C2025.32,657,1906.54,802.74,1751.64,880.6c-1.19.35-2.65.75-4.23,1.19q-12.71,7.22-25.77,13.81c-29,8.41-174.65,45.75-369.33,10.63a927.84,927.84,0,0,1-145.08-45q-4.24-8.5-8.26-17.12a586,586,0,0,0,87.09,136.13c23.51,19,143.39,109.72,336.54,152.67,186.64,33.67,328.19.74,365.09-9.44C2129.87,1042.91,2237.65,903.39,2272.45,730.62Z"/></g><path class="cls-17" d="M1922.68,1236.92c-124.34,46.3-321.61,2.92-321.61,2.92s-198.72-36.32-295.47-127.11c-80.16-75.23-23.77-136-23.77-136s1.41,1.25,4.24,3.52c23.49,19,143.38,109.73,336.52,152.67,194.67,35.11,340.34-2.21,369.33-10.61,3.49-1,5.28-1.6,5.28-1.6S2025.7,1198.56,1922.68,1236.92Z"/><g class="cls-2"><path class="cls-3" d="M2000.38,1153.74c-5.44,3-10.92,5.8-16.44,8.6-29,8.41-174.68,45.73-369.37,10.61-193.12-42.93-313-133.72-336.52-152.68q-6.06-7.08-11.88-14.4c5.56-18.25,15.64-29.13,15.64-29.13s1.45,1.28,4.25,3.52c23.52,19,143.39,109.75,336.52,152.68,194.68,35.12,340.36-2.2,369.36-10.61,3.48-1,5.24-1.6,5.24-1.6S2002.3,1134.7,2000.38,1153.74Z"/></g><path class="cls-3" d="M1777.26,1274.39c-90.64,0-171.93-17.24-179.34-18.86-11.66-2.15-205.14-39-303.28-131.13-90.71-85.14-25.21-157.81-24.54-158.54a16,16,0,0,1,22.33-1.1c.13.12,1.36,1.19,3.67,3,21.75,17.56,139.72,107.16,329.65,149.44,191.46,34.48,334.9-2.51,361.72-10.28,2.86-.82,4.4-1.32,4.59-1.39a16,16,0,0,1,20.16,9.65c.35.93,32.63,93.28-84,136.7h0C1882.72,1268.88,1828.49,1274.39,1777.26,1274.39ZM1285.35,1000c-9.36,18.56-17.13,55.7,31.2,101.06,92.25,86.57,285.46,122.68,287.4,123l.55.11c1.93.43,194.18,41.8,312.6-2.28,62.07-23.12,69.3-60.34,67.84-81.12-45.87,11.76-185.62,40.27-365.19,7.88l-.63-.13C1441,1109,1323.15,1028.63,1285.35,1000Zm637.33,236.92h0Z"/><path class="cls-3" d="M1038.86,1243a12.5,12.5,0,0,1-3.46-24.51c162.19-46.73,164.46-219.26,164.48-226.58a12.51,12.51,0,0,1,12.5-12.48h0a12.5,12.5,0,0,1,12.49,12.5c0,2-2.09,198.59-182.56,250.58A12.57,12.57,0,0,1,1038.86,1243Z"/><path class="cls-1" d="M1915.14,1027.47c.32-1.24.6-2.2.81-2.86Z"/><g class="cls-2"><path class="cls-3" d="M1296,943.89c.06.2.15.37.21.57l-.28-.69Z"/><path class="cls-3" d="M1296.23,944.46l8.44,19.57C1301.71,957.66,1298.85,951.17,1296.23,944.46Z"/><path class="cls-3" d="M2060.17,1059.52l-.51.61c.12-.16.26-.35.4-.51S2060.14,1059.56,2060.17,1059.52Z"/></g><path class="cls-1" d="M1296.44,942.67l9,15.22C1302.31,952.94,1299.26,947.88,1296.44,942.67Z"/><path class="cls-1" d="M2060,1058.32c-4.24,4.14-8.65,8.07-13.13,11.87Z"/><path class="cls-1" d="M2162.37,994.84c-4.84,17.93-39.44-5-46.94-10.2a.9.9,0,0,0-1.34.94c.25,3.28,1.2,10.67,4.57,22.74,4.14,14.9,7.64,26.52,3.68,33.43-4.23,7.32-17.31,8.4-32.82,4.25-8.66-2.33-19.31,3.92-29.12,12l-.1.08c-4.77,3.9-9.35,8.19-13.41,12.15l-.28.26a292.81,292.81,0,0,1-54.06,36c-24.86,12.4-51.53,21.1-79.12,26.89,0,0-129.53,26.68-256.43,7.46s-242.73-83.06-242.73-83.06c-24.66-13.71-47.53-29.91-67.61-49.12a291.5,291.5,0,0,1-41-50.37.83.83,0,0,0-.07-.13c0-.07-.07-.13-.12-.2-2.7-5-5.81-10.43-9.21-15.58-7-10.61-15.35-19.81-24.34-20.15-16-.62-28.22-5.53-30.09-13.78-1.74-7.77,5-17.83,13.41-30.83,6.79-10.54,9.89-17.31,11.11-20.37a.91.91,0,0,0-1-1.3c-8.68,2.77-48.51,14.41-47.86-4.15.36-10.31,21.37-38.37,31.84-68.78,30.27-88.19,37.77-105.38,37.77-105.38.21-.57,26.09-63.17,57.34-107.41-15.89-39.51-81.82-214.55-23.53-268.54,8.56-7.93,26.88-7.31,50-1.61,67.07,16.4,174.73,75,204.14,91.51,49.2-14.81,103.24-20.35,161.45-14.09,6.24.65,19.64,1.65,35.17,4,13.8,2.12,29.89,5.55,35.35,6.64,57.45,11.26,107.46,32.56,150,61.27,44.39-9.47,246.79-49.89,269.41-10.6.31.53.59,1.05.89,1.61,37,69.48-76.2,215.14-102.89,247.93,16.74,51.5,22.93,118.95,23,119.56,0,0,2.07,18.64,4.9,111.84C2153.32,951.86,2165.08,984.89,2162.37,994.84Z"/><path class="cls-1" d="M1305.46,957.89l-9-15.22C1299.26,947.88,1302.31,952.94,1305.46,957.89Z"/><path class="cls-1" d="M2046.89,1070.19c4.48-3.8,8.89-7.73,13.13-11.86Z"/><path class="cls-1" d="M1778.84,517.45a278.61,278.61,0,0,1,31.33-128.65c-1.05-.21-2.07-.48-3.12-.69-5.46-1.09-21.55-4.52-35.35-6.64-15.53-2.39-28.93-3.39-35.17-4-58.21-6.26-112.25-.72-161.45,14.09C1545.67,375,1438,316.41,1370.94,300c-23.17-5.7-41.49-6.32-50,1.61-58.29,54,7.64,229,23.53,268.54-31.25,44.24-57.13,106.84-57.34,107.41,0,0-7.5,17.19-37.77,105.38-10.47,30.41-31.48,58.47-31.84,68.78-.65,18.56,39.18,6.92,47.86,4.15a.91.91,0,0,1,1,1.3c-1.22,3.06-4.32,9.83-11.11,20.37-8.37,13-15.15,23.06-13.41,30.83,1.87,8.25,14,13.16,30.09,13.78,9,.34,17.33,9.54,24.34,20.15,3.4,5.15,6.51,10.6,9.21,15.58,0,.07.07.13.12.2a.83.83,0,0,1,.07.13,291.5,291.5,0,0,0,41,50.37c20.08,19.21,42.95,35.41,67.61,49.12,0,0,115.82,63.84,242.73,83.06s256.43-7.46,256.43-7.46c27.59-5.79,54.26-14.49,79.12-26.89a292.81,292.81,0,0,0,54.06-36l.28-.26c4.06-4,8.64-8.25,13.41-12.15l.1-.08c9.81-8,20.46-14.29,29.12-12,15.51,4.15,28.59,3.07,32.82-4.25,4-6.91.46-18.53-3.68-33.43-3.37-12.07-4.32-19.46-4.57-22.74a.9.9,0,0,1,1.34-.94c7.5,5.22,42.1,28.13,46.94,10.2,2.71-10-9-43-10-75.12-2.83-93.2-4.9-111.84-4.9-111.84,0-.22-.87-9.59-2.78-23.89a279.65,279.65,0,0,1-85.84,13.46C1904.2,797.45,1778.84,672.09,1778.84,517.45Z"/><path class="cls-20" d="M2227.39,440.39c-.3-.56-.58-1.08-.9-1.61-22.61-39.29-225,1.13-269.4,10.6-41.8-28.18-90.8-49.17-146.92-60.58a278.61,278.61,0,0,0-31.33,128.65c0,154.64,125.36,280,280,280A279.65,279.65,0,0,0,2144.68,784c-3.27-24.4-9.62-63.2-20.18-95.67C2151.19,655.52,2264.43,509.87,2227.39,440.39Z"/><g class="cls-2"><path class="cls-3" d="M1296.24,942.31l.15.22c.07.14.14.28.22.42Z"/><path class="cls-3" d="M1305.41,957.83c-3.09-4.84-6-9.79-8.8-14.88Z"/><path class="cls-3" d="M2046.93,1070.14l12.78-11.54C2055.59,1062.63,2051.33,1066.46,2046.93,1070.14Z"/><path class="cls-3" d="M2118.65,1008.3c4.17,14.94,7.66,26.54,3.7,33.45-4.23,7.32-17.32,8.4-32.83,4.23-8.67-2.3-19.29,4-29.11,12l-.7.63a8.18,8.18,0,0,0,.6-.57c-4.75,3.89-9.31,8.17-13.38,12.11a.79.79,0,0,1-.19.17l0,0s0,0,0,0l0,0s0,0-.08.06a291.52,291.52,0,0,1-54.06,36c-24.87,12.39-51.54,21.11-79.13,26.9,0,0-129.53,26.66-256.44,7.44s-242.71-83-242.71-83c-24.66-13.69-47.55-29.92-67.61-49.12a291.5,291.5,0,0,1-41-50.37s0-.08-.05-.11l0,0,0,0c-2.72-4.93-5.78-10.38-9.17-15.52a1.27,1.27,0,0,1-.13-.22h0l-.06-.09c-7-10.59-15.28-19.7-24.27-20.08-16-.61-28.21-5.51-30.09-13.76-1.76-7.77,5-17.82,13.42-30.85l.09-.14c5.44,3,13.39,4.76,22.58,5.11,9,.35,17.26,9.47,24.28,20.08l.08.09c3.42,5.2,6.54,10.73,9.29,15.74l0,0,.08.11a290.15,290.15,0,0,0,41,50.4c20.06,19.2,42.95,35.4,67.61,49.12,0,0,115.81,63.83,242.71,83s256.44-7.44,256.44-7.44c27.6-5.81,54.26-14.51,79.13-26.9a291,291,0,0,0,54.07-36l.13-.11a1,1,0,0,0,.19-.17c4.06-3.93,8.62-8.22,13.37-12.11,0,0,.08,0,.1-.06,9.83-8.06,20.44-14.32,29.11-12,8.89,2.38,17,3,23.09,1.8Z"/></g><g class="cls-21"><path class="cls-1" d="M2059.19,1065.37l.09-.06-.59.54C2058.85,1065.68,2059,1065.54,2059.19,1065.37Z"/></g><path class="cls-22" d="M2082.44,639.56c-19.2-57.47-44.35-95.23-56.43-111.31-3.44-4.59-1.91-11.9,3.09-14.48,48.94-25.29,109.44-31.66,132.31-33.21,8.64-.59,15.8,7,15.73,16.8-.09,11-4,28.75-17.59,57.1-19.73,41.2-49.53,73.74-64.33,88.43C2090.93,647.16,2084.4,645.42,2082.44,639.56Z"/><path class="cls-3" d="M2089.75,655.26a16.84,16.84,0,0,1-4-.47,18,18,0,0,1-12.83-12.1c-4.55-13.6-9.75-27-15.43-39.77-15.45-34.6-31.37-57.87-39.49-68.66a19.86,19.86,0,0,1-3.33-16.43,19.31,19.31,0,0,1,9.82-12.93c33.69-17.41,72.29-26,98.74-30.08,12.36-1.95,25.33-3.41,37.48-4.25a23.56,23.56,0,0,1,18,6.5,27.7,27.7,0,0,1,8.45,20.34c-.13,15.27-6.38,35.91-18.59,61.37-20.15,42.12-50.19,75.23-66.3,91.22A17.77,17.77,0,0,1,2089.75,655.26ZM2034.3,522.35c8.44,11.52,25.28,36.15,41.48,72.43,5.49,12.35,10.54,25.24,15,38.35,15.66-15.9,41.9-45.78,59.7-83h0c13.61-28.39,16.55-44.41,16.62-52.86a7.65,7.65,0,0,0-2.14-5.62,3.92,3.92,0,0,0-2.91-1.13c-11.58.8-23.94,2.2-35.76,4.06C2101.5,498.44,2065.46,506.39,2034.3,522.35Z"/><g class="cls-2"><path class="cls-3" d="M2107.54,536.13c-11.83,24.69-27.25,46.25-40.9,62.73C2051.07,564,2035,540.14,2026,528.25c-3.43-4.6-1.91-11.89,3.09-14.47,31.5-16.28,67.74-24.73,95.69-29.08C2123.58,495.86,2119,512.23,2107.54,536.13Z"/></g><path class="cls-22" d="M1399.1,536.06c35.35-49.21,70.56-77.83,86.86-89.61,4.65-3.36,5.35-10.8,1.34-14.75-39.26-38.64-95.16-62.64-116.55-70.9-8.07-3.12-17.15,2-20,11.39-3.18,10.54-4.69,28.65-.11,59.76,6.64,45.19,25.47,85.09,35.25,103.51C1388.74,540.81,1395.49,541.08,1399.1,536.06Z"/><path class="cls-3" d="M1392.54,549.66l-1.13,0a17.54,17.54,0,0,1-14.33-9.47c-10.65-20-29.54-60.57-36.32-106.76h0c-4.12-27.92-4-49.49.41-64.09a27.73,27.73,0,0,1,14.1-17,23.64,23.64,0,0,1,19.09-.88c11.36,4.39,23.31,9.64,34.56,15.16,24,11.76,58.36,31.36,85.39,58a19.3,19.3,0,0,1,5.55,15.26,19.88,19.88,0,0,1-8,14.69c-11,7.92-33.1,25.43-58.1,53.92-9.2,10.52-18.13,21.77-26.53,33.43A18.06,18.06,0,0,1,1392.54,549.66Zm2.2-18.89h0Zm-28.87-160.89a4.13,4.13,0,0,0-1.84.46,7.65,7.65,0,0,0-3.72,4.76c-2.42,8.06-4.36,24.24.24,55.38h0c6,40.81,22.2,77.12,32.45,97,8.19-11.21,16.82-22,25.71-32.17,26.17-29.8,49.5-48.32,61.2-56.78-25.05-24.54-57.19-42.84-79.8-53.9-10.75-5.28-22.15-10.28-33-14.47A3.49,3.49,0,0,0,1365.87,369.88Zm114.23,68.46c-.06,0-.09,0-.09.07l.1-.07Z"/><g class="cls-2"><path class="cls-3" d="M1405.75,429.84c4,27.08,12.34,52.25,20.49,72,25.21-28.73,47.65-46.7,59.72-55.41,4.64-3.37,5.34-10.79,1.33-14.73-25.26-24.88-57.37-43.68-82.78-56.11C1402.36,386.63,1401.89,403.62,1405.75,429.84Z"/></g><path class="cls-3" d="M1587.53,1138.48a12.5,12.5,0,0,1-3.45-.49c-42.43-12.15-88.77-29.59-89.24-29.76-51.47-20.3-85.2-38.8-86.61-39.58a12.5,12.5,0,0,1,12.06-21.9c.34.19,33.85,18.55,83.55,38.16.28.1,45.7,17.18,87.12,29a12.5,12.5,0,0,1-3.43,24.52Z"/><path class="cls-3" d="M1740.16,1159.3c-8,0-16.43,0-25.17-.17a12.5,12.5,0,0,1-12.33-12.66,12.64,12.64,0,0,1,12.66-12.34c65.11.88,111.67-1.94,112.14-2a12.5,12.5,0,0,1,1.54,24.95C1828.59,1157.14,1792.83,1159.3,1740.16,1159.3Z"/><path class="cls-3" d="M1828.21,1157.13a12.5,12.5,0,0,1-1-25c49.31-4.12,83.37-11,83.71-11.12l9.55-2a309.58,309.58,0,0,0,66.49-23.68,280.23,280.23,0,0,0,51-33.84l2-1.89c3.88-3.71,7.89-7.4,12-10.79l.1-.09.84-.68.41-.33c12.58-10.13,26.06-17.3,39.46-13.7,11.24,3,17.17,1.9,18.85,1.19.62-3.35-2.31-13.85-4.48-21.6l-.51-1.85c-3.63-13-4.68-21.3-5-25.07a13.62,13.62,0,0,1,6.74-12.84,13.36,13.36,0,0,1,14.22.63c12.34,8.59,22.42,13.11,27.63,14.36-.47-4.47-2.07-12.4-3.41-19.06-2.86-14.17-6.42-31.81-7-49.58-2.74-90.72-4.73-110.08-4.82-110.86l-.06-.9c0-.16-6.16-66.33-22.35-116.16l-2.11-6.47,4.3-5.28c63.88-78.48,128.64-187.22,100.87-235.4-9.44-16.38-102.37-16.14-256,16.58l-5.19,1.1-4.4-3c-42.8-28.85-91.74-48.82-145.46-59.37l-3.85-.78c-7-1.42-19.89-4.07-31-5.76-11.91-1.82-22.56-2.82-29.6-3.49l-5-.48c-54.46-5.84-107.11-1.26-156.54,13.63l-5.09,1.53-4.63-2.59c-137-76.75-225.74-104.47-239.6-91.64-40.78,37.8-11.14,160.83,26.64,254.71l2.54,6.32-3.93,5.56c-30.15,42.7-55.68,104.18-55.92,104.78-.46,1.1-8.1,19-37.59,104.85-5.77,16.81-14.39,32.6-21.32,45.29-3.22,5.9-7,12.91-8.85,17.2,5.35.35,16.31-1,30.62-5.54a13.38,13.38,0,0,1,13.75,3.62,13.62,13.62,0,0,1,2.62,14.26c-1.72,4.29-5.22,11.67-12.18,22.47l-1,1.59c-4.32,6.69-10.15,15.72-10.65,19.35,1.47,1.2,6.8,4,18.33,4.42,13.83.53,24.58,11.33,33.58,24.71l.24.24.63,1.06c3.06,4.65,5.91,9.58,8.63,14.47l.25.22.83,1.71a281,281,0,0,0,38.87,47.63c18.18,17.38,40.07,33.27,64.9,47.07a12.5,12.5,0,0,1-12.15,21.85c-26.69-14.83-50.3-32-70.18-51a306.55,306.55,0,0,1-42-51.3l-.51-.8-.39-.6-.41-.66c-3.28-5.16-6.2-10.09-8.9-15-8-12.23-12.33-14.53-14.37-14.61-23.4-.91-38.64-9.48-41.81-23.52-2.73-12.1,4.11-23.29,13.07-37.2-13.23,1.64-23.13,0-29.57-4.89a20.73,20.73,0,0,1-8.15-17.75c.28-7.9,5.3-17.08,12.88-31,6.47-11.86,14.53-26.62,19.62-41.43,30.11-87.66,37.84-105.6,38.15-106.32h0c3-7.28,26.14-61.72,54.7-104-22.74-57.95-78.58-219.93-18-276.11,34.15-31.67,161.48,28.39,264.21,85.59,51.15-14.66,105.38-19.06,161.27-13.05l4.69.45c7.33.69,18.41,1.74,31,3.66,11.71,1.79,25,4.52,32.22,6l3.68.75c55.14,10.82,105.64,31.07,150.14,60.21,115.06-24.21,254.46-43.87,277.71-3.51,41.28,71.63-60,209.8-98.91,258.41,14.89,49.23,20.72,107.52,21.44,115.54h0c.08.78,2.16,20.2,4.95,112.85.48,15.65,3.8,32.14,6.47,45.39,3.13,15.51,5.2,25.76,3.13,33.38a20.71,20.71,0,0,1-13,14.55c-7.59,2.76-17.53,1.38-29.69-4.08,4.44,15.93,7.66,28.64,1.47,39.39-7.18,12.47-24.27,16.16-46.89,10.08-2-.51-6.76.41-18.05,9.7-4,3.9-8.26,7.74-12.91,11.68l-.64.55-1.68,1.4a306,306,0,0,1-54.71,36.14c-24.8,12.35-52.44,21.75-82.32,28l-17.81,3.74.12-.74c-15.17,2.47-39.25,5.89-69,8.37C1828.91,1157.12,1828.56,1157.13,1828.21,1157.13Zm280-162.06,0,0Z"/><g class="cls-2"><path class="cls-3" d="M1295.1,895.64c.1.2.24.38.35.58l-.43-.66S1295.08,895.61,1295.1,895.64Z"/><path class="cls-3" d="M1295.45,896.22l9,13.76C1301.28,905.5,1298.27,900.93,1295.45,896.22Z"/><path class="cls-3" d="M2059.14,1011.36s.08,0,.1-.05l-.69.56A7.46,7.46,0,0,0,2059.14,1011.36Z"/></g><g class="cls-2"><path class="cls-3" d="M1289.6,931.91c.12.19.24.41.37.61l-.45-.69Z"/><path class="cls-3" d="M1290,932.52l9.22,14.08s-.06-.08-.1-.11Q1294.29,939.67,1290,932.52Z"/></g><g class="cls-2"><path class="cls-23" d="M1295.2,895.06l.37.62-.47-.72.08.08Z"/><path class="cls-23" d="M1295.57,895.68l9.1,14C1301.5,905.08,1298.43,900.44,1295.57,895.68Z"/><path class="cls-23" d="M2059.07,1010.89l.15-.11-.51.44Z"/></g><g class="cls-5"><path class="cls-1" d="M1756.64,982.45a22,22,0,0,1-1-3.06C1756,980.4,1756.33,981.42,1756.64,982.45Z"/></g><path class="cls-3" d="M1736.76,885.39c-1.4,9.26-14.72,15.61-26.65,19.49a40.19,40.19,0,0,1-36.2-5.48c-10.25-7.24-21.09-17.25-19.69-26.52C1658.45,845,1741,857.45,1736.76,885.39Z"/><g class="cls-21"><path class="cls-1" d="M1712.69,876.13c-.41,2.67-5.56,4.31-10.2,5.25a21.37,21.37,0,0,1-14.35-2.18c-4.15-2.27-8.59-5.35-8.18-8C1681.18,863.12,1713.91,868.08,1712.69,876.13Z"/></g><path class="cls-3" d="M1628.36,910.19a96.39,96.39,0,0,0,6.51,9.68,31.42,31.42,0,0,0,7.4,7,20.06,20.06,0,0,0,7.53,3,29.28,29.28,0,0,0,9-.29c6.42-1.08,11.23-4.12,15.82-9.46s8-13.41,10.37-20.74l.4-1.23a8.57,8.57,0,0,1,16.68,2.08,58.09,58.09,0,0,1-1.28,16.89,53.24,53.24,0,0,1-6.35,16.29c-5.9,10.59-17.9,19.62-30.44,21.76a45.86,45.86,0,0,1-19.54.17,41.19,41.19,0,0,1-18-9.53,45.43,45.43,0,0,1-10.68-15.13,50,50,0,0,1-4.16-16.88,8.55,8.55,0,0,1,15.74-5.17Z"/><path class="cls-3" d="M1768.76,937.62a50.34,50.34,0,0,1-9,14.89,45.51,45.51,0,0,1-14.68,11.28,41.37,41.37,0,0,1-20,3.8,45.69,45.69,0,0,1-18.6-6c-11.35-5.77-20.14-17.94-22.64-29.81a53.36,53.36,0,0,1-1.24-17.44,58.09,58.09,0,0,1,3.78-16.5,8.57,8.57,0,0,1,16.55,3l0,1.29c.14,7.72,1,16.59,3.76,22.88,2.8,6.46,6.49,10.79,12.31,13.72a29.51,29.51,0,0,0,8.48,2.94,20.11,20.11,0,0,0,8.1-.69,31.29,31.29,0,0,0,9.13-4.46,96.75,96.75,0,0,0,9.08-7.32l1.38-1.18a8.55,8.55,0,0,1,13.52,9.6Z"/><ellipse class="cls-24" cx="1926.78" cy="974.4" rx="21.31" ry="44.4" transform="translate(674.83 2733.52) rotate(-81.39)"/><ellipse class="cls-24" cx="1460.49" cy="908.92" rx="21.31" ry="44.4" transform="translate(343.11 2216.83) rotate(-81.39)"/><path class="cls-3" d="M1786.7,1163.66a941.38,941.38,0,0,1-167-15l-.63-.13c-197.08-43.81-320.38-137.5-343.1-155.83a17,17,0,0,1-2.11-2.05C1153.05,849.42,1104.75,664,1141.39,481.93,1173,324.76,1264,189.33,1397.46,100.57S1691-19.65,1848.19,12c324.42,65.29,535.23,382.35,469.94,706.76-36.64,182.06-152.92,334.37-319,417.88a15.94,15.94,0,0,1-2.73,1.07C1976.94,1143.33,1898.92,1163.66,1786.7,1163.66Zm-161-46.42c188.33,33.91,330.19-1.32,360.31-9.88,156.55-79.19,266.1-223.06,300.69-394.92C2348.56,405.32,2149,105.18,1841.88,43.37c-148.78-29.94-300.33-.17-426.7,83.86s-212.47,212.23-242.41,361c-34.59,171.86,10.78,346.9,124.5,480.5C1321.73,988.28,1438.93,1075.65,1625.75,1117.24ZM2302.44,715.6h0Z"/><path class="cls-3" d="M1463.41,1824a12.5,12.5,0,0,1-10.26-19.62c1.65-2.37,41.06-58.74,103.62-105.57,84.57-63.3,170.46-77.74,248.39-41.73a12.5,12.5,0,1,1-10.48,22.69c-168.31-77.73-319.47,136.68-321,138.85A12.47,12.47,0,0,1,1463.41,1824Z"/><g class="cls-9"><path class="cls-1" d="M1689.44,107.54c-71.56-18.45-166.29,34.1-187.77,72.65-22.25,39.94-21.16,67.93,20.56,79.59,58.25,16.28,96.69-9,121-45C1660.33,189.36,1777.75,130.31,1689.44,107.54Z"/></g><ellipse class="cls-3" cx="1886.1" cy="822.6" rx="72.72" ry="100.75"/><ellipse class="cls-1" cx="1860.92" cy="802.11" rx="34.75" ry="19.5" transform="translate(1023.69 2647.49) rotate(-88.91)"/><path class="cls-1" d="M1911.07,851c.58,9.58,5.4,16.84,10.75,16.21s9.23-8.89,8.65-18.46-5.39-16.84-10.75-16.21S1910.49,841.43,1911.07,851Z"/><ellipse class="cls-3" cx="1551.1" cy="767.6" rx="100.75" ry="72.72" transform="translate(348.97 2012.59) rotate(-72.33)"/><ellipse class="cls-1" cx="1581.31" cy="755.72" rx="34.75" ry="19.5" transform="translate(405.76 2055.61) rotate(-73.42)"/><path class="cls-1" d="M1518.68,787.08c-3.46,8.95-10.25,14.41-15.16,12.19s-6.1-11.28-2.64-20.22,10.25-14.41,15.17-12.19S1522.14,778.14,1518.68,787.08Z"/></g></g></svg>